# Blender 3.3.1
# www.blender.org
mtllib BurtonTreeLow.mtl
o Cylinder.001
v 0.043385 2.028343 -0.102666 0.1059 0.0471 0.0000
v 1.450421 -0.998557 0.306275 0.1137 0.0510 0.0000
v 0.627763 0.539068 1.111572 0.1059 0.0471 0.0000
v -0.401730 -1.000079 1.052056 0.1098 0.0471 0.0000
v -1.734674 0.522726 0.103582 0.1059 0.0471 0.0000
v 0.452516 -0.999139 -0.985394 0.1059 0.0471 0.0000
v -1.010337 1.823076 -0.395137 0.1059 0.0471 0.0000
v -0.146399 2.006366 0.983931 0.1059 0.0471 0.0000
v -1.204831 1.799908 1.020181 0.1059 0.0471 0.0000
v -0.159812 5.518183 -0.257358 0.1059 0.0471 0.0000
v 0.078012 5.281720 0.141389 0.1059 0.0471 0.0000
v -0.489097 5.227631 0.190149 0.1059 0.0471 0.0000
v -0.574222 5.353405 -0.331681 0.1059 0.0471 0.0000
v -0.697823 6.104687 0.432355 0.1059 0.0471 0.0000
v -0.581563 5.824312 0.848751 0.1059 0.0471 0.0000
v -1.136186 5.808899 0.469866 0.1059 0.0471 0.0000
v -1.315559 6.158253 1.677911 0.1059 0.0471 0.0000
v -1.105610 6.061445 1.612289 0.1373 0.0588 0.0000
v -1.430286 5.967271 1.370201 0.1059 0.0471 0.0000
v -1.412096 5.238613 2.296300 0.1059 0.0471 0.0039
v -1.379443 5.332773 2.115535 0.1098 0.0471 0.0000
v -1.560865 5.287750 2.078187 0.1059 0.0471 0.0000
v -1.331493 4.719699 1.979989 0.1059 0.0471 0.0000
v 0.180852 4.979194 -0.484199 0.1059 0.0471 0.0000
v 0.016734 4.981265 -0.613781 0.1059 0.0471 0.0000
v 0.448604 3.479466 -0.759964 0.1098 0.0471 0.0000
v 0.363695 3.636492 0.124853 0.1059 0.0471 0.0000
v -0.528195 3.610290 0.103425 0.1059 0.0471 0.0000
v -0.500227 3.244015 -0.819717 0.1059 0.0471 0.0000
v 0.042356 0.252662 -0.360190 0.1059 0.0471 0.0000
v -1.016816 0.113744 1.260876 0.1059 0.0471 0.0000
v -1.349003 -0.977466 -0.382136 0.1059 0.0471 0.0000
vn 0.9241 0.0543 -0.3782
vn 0.0517 0.1468 0.9878
vn -0.8529 -0.0206 0.5217
vn 0.0223 -0.0073 -0.9997
vn 0.2396 0.1392 -0.9608
vn 0.8671 0.4715 0.1610
vn -0.9487 0.2831 -0.1411
vn -0.0629 0.5375 -0.8409
vn 0.8114 0.5641 0.1533
vn -0.6821 -0.7284 -0.0643
vn -0.3833 -0.7106 0.5900
vn 0.5832 -0.5985 -0.5493
vn -0.0745 -0.9860 0.1491
vn 0.4522 0.4645 0.7614
vn -0.7966 -0.4000 0.4532
vn -0.9988 0.0263 -0.0407
vn 0.0054 0.2256 -0.9742
vn -0.0142 -0.9999 -0.0064
vn 0.3593 -0.2748 0.8918
vn -0.6540 0.0756 -0.7527
vn -0.0351 0.4745 0.8796
vn 0.0156 0.0948 0.9954
vn 0.8082 0.5712 -0.1433
vn -0.3899 -0.1323 -0.9113
vn 0.3150 -0.3737 -0.8724
vn 0.9687 -0.2114 0.1305
vn -0.4583 0.5956 -0.6598
vn -0.9144 0.4034 -0.0335
vn 0.1273 -0.7261 0.6757
vn -0.5492 0.7739 -0.3155
vn 0.6639 0.7463 0.0466
vn 0.4596 0.8674 0.1906
vn -0.9333 0.3291 0.1437
vn 0.0366 -0.9470 0.3192
vn 0.9308 -0.3650 -0.0220
vn 0.3068 -0.7143 -0.6290
vn 0.9843 0.1637 0.0654
vn 0.1428 0.2243 -0.9640
vn 0.9803 0.0336 0.1946
vn 0.6024 0.2471 -0.7590
vn -0.0236 -0.0141 0.9996
vn -0.8468 -0.3480 0.4023
vn -0.9871 -0.0681 0.1446
vn -0.4525 -0.0434 -0.8907
vn -0.2939 0.3483 -0.8901
vn 0.7076 0.5857 -0.3954
vn 0.1201 -0.1185 0.9857
vn 0.0008 -1.0000 -0.0001
vn -0.0613 0.4691 0.8810
vn 0.1658 -0.4449 -0.8801
vn 0.9628 -0.2149 0.1638
vn -0.1490 0.6929 -0.7055
vn -0.5288 0.7953 -0.2965
vn 0.6887 0.6758 0.2628
vn -0.6847 0.4548 0.5695
vn 0.9823 0.1698 0.0794
vn 0.0908 -0.0555 0.9943
vn -0.7300 -0.4920 0.4744
vn 0.6890 0.4917 -0.5325
vt 0.000000 1.000000
vt 0.940336 1.000000
vt 0.982283 0.210560
vt 0.722611 0.500000
vt 0.676228 0.834644
vt 0.693542 0.020137
vt 0.460793 0.500000
vt 0.266288 0.868918
vt -0.008326 0.500000
vt 0.807257 0.478390
vt 0.965075 0.500000
vt 0.172240 1.000000
vt 0.723876 1.000000
vt 0.468186 1.000000
vt 0.952420 1.000000
vt 0.000000 1.000000
vt 0.707202 1.000000
vt 0.445667 1.000000
vt 0.199559 1.000000
vt 0.000000 1.000000
vt 0.948707 1.000000
vt 0.661778 1.000000
vt 0.253389 1.000000
vt 0.949831 1.000000
vt 0.000000 1.000000
vt 0.709901 1.000000
vt 0.280385 1.000000
vt 0.845338 1.000000
vt 0.000000 1.000000
vt 0.534553 1.000000
vt 0.243198 1.000000
vt 0.129140 1.000000
vt 0.513547 1.000000
vt 0.915860 1.000000
vt 1.000000 1.000000
vt 0.000000 1.000000
vt 0.961119 1.000000
vt 0.004410 1.000000
vt 0.717949 1.000000
vt 0.460529 1.000000
vt 0.197074 1.000000
vt 0.018877 0.800694
vt 0.978140 0.800963
vt 0.447473 0.769403
vt 0.521931 0.294831
vt 0.218224 0.507603
s 0
f 1/2/1 3/5/1 30/43/1
f 9/14/2 31/44/2 3/5/2
f 9/14/3 5/8/3 31/44/3
f 7/12/4 30/42/4 32/46/4
f 30/42/5 7/12/5 1/1/5
f 1/2/6 8/13/6 3/5/6
f 9/14/7 28/40/7 29/41/7
f 13/19/8 10/16/8 25/36/8
f 10/15/9 14/21/9 15/22/9
f 12/18/10 16/23/10 13/19/10
f 12/18/11 15/22/11 16/23/11
f 18/26/12 21/30/12 19/27/12
f 15/22/13 19/27/13 16/23/13
f 17/24/14 20/28/14 18/26/14
f 22/31/15 23/32/15 20/29/15
f 28/40/16 12/18/16 29/41/16
f 29/41/17 13/19/17 26/38/17
f 6/10/18 4/6/18 32/45/18
f 3/5/19 4/7/19 2/4/19
f 5/8/20 7/12/20 32/46/20
f 28/40/21 8/13/21 27/39/21
f 9/14/22 3/5/22 8/13/22
f 11/17/23 24/34/23 10/15/23
f 7/12/24 5/8/24 29/41/24
f 29/41/25 1/1/25 7/12/25
f 27/39/26 1/2/26 26/37/26
f 14/20/27 13/19/27 16/23/27
f 5/8/28 9/14/28 29/41/28
f 12/18/29 11/17/29 15/22/29
f 19/27/30 14/20/30 16/23/30
f 11/17/31 10/15/31 15/22/31
f 18/26/32 14/21/32 17/24/32
f 22/31/33 17/25/33 19/27/33
f 15/22/34 18/26/34 19/27/34
f 18/26/35 20/28/35 21/30/35
f 19/27/36 21/30/36 22/31/36
f 24/34/37 27/39/37 26/37/37
f 22/31/38 21/30/38 23/32/38
f 21/30/39 20/28/39 23/33/39
f 26/37/40 25/35/40 24/34/40
f 11/17/41 28/40/41 27/39/41
f 32/46/42 31/44/42 5/8/42
f 29/41/43 12/18/43 13/19/43
f 26/38/44 13/19/44 25/36/44
f 6/9/45 32/46/45 30/42/45
f 2/4/46 30/43/46 3/5/46
f 3/5/47 31/44/47 4/7/47
f 6/10/48 2/3/48 4/6/48
f 28/40/49 9/14/49 8/13/49
f 29/41/50 26/38/50 1/1/50
f 27/39/51 8/13/51 1/2/51
f 14/20/52 10/16/52 13/19/52
f 19/27/53 17/25/53 14/20/53
f 18/26/54 15/22/54 14/21/54
f 22/31/55 20/29/55 17/25/55
f 24/34/56 11/17/56 27/39/56
f 11/17/57 12/18/57 28/40/57
f 32/46/58 4/7/58 31/44/58
f 2/4/59 6/11/59 30/43/59
o Cylinder.002
v 0.141983 2.806079 -0.355869 0.1137 0.0510 0.0000
v 0.171954 3.193251 -0.060397 0.1333 0.0588 0.0000
v 0.347503 3.575005 -0.373586 0.1137 0.0471 0.0000
v -0.093331 3.449646 -0.006481 0.1098 0.0471 0.0000
v -0.414370 3.406469 -0.208352 0.1255 0.0549 0.0118
v -0.404389 3.747313 -0.805130 0.1059 0.0471 0.0000
v -0.370442 2.961921 -0.470337 0.1059 0.0471 0.0000
v -0.214882 3.729683 -1.081418 0.1059 0.0471 0.0000
v 0.252968 3.684083 -1.117847 0.1059 0.0471 0.0000
v 0.289103 3.990541 -0.832467 0.1059 0.0471 0.0000
v -0.040956 4.111891 -0.814517 0.1059 0.0471 0.0000
v 0.433556 3.699762 -1.543437 0.1059 0.0471 0.0000
v 0.564059 4.354132 -2.104208 0.1059 0.0471 0.0000
v 0.658289 4.369931 -1.945004 0.1059 0.0471 0.0000
v 0.477501 4.463270 -1.928488 0.1059 0.0471 0.0000
v 0.406612 4.377148 -2.086851 0.1059 0.0471 0.0000
v 0.538094 4.781988 -2.121027 0.1059 0.0471 0.0000
v 0.387921 4.691663 -2.059672 0.1059 0.0471 0.0000
v 0.555177 5.035323 -1.912216 0.1059 0.0471 0.0000
v 0.562684 4.881007 -1.909510 0.1176 0.0549 0.0000
v 0.434428 4.963916 -1.892876 0.1255 0.0549 0.0000
v 0.525355 5.154669 -1.660594 0.1059 0.0471 0.0000
v 0.528168 5.100870 -1.663981 0.1216 0.0549 0.0000
v 0.451608 5.118514 -1.691776 0.1059 0.0471 0.0000
v 0.443460 5.094980 -1.475097 0.1059 0.0471 0.0000
v 0.447726 5.044670 -1.525857 0.1098 0.0510 0.0000
v 0.384602 5.067677 -1.539721 0.1059 0.0471 0.0000
v 0.414645 4.892271 -1.461998 0.1059 0.0471 0.0000
v 0.582662 4.136246 -2.000786 0.1059 0.0471 0.0000
v 0.515739 4.131094 -2.033735 0.1059 0.0471 0.0000
v 0.505876 3.852687 -1.791439 0.1059 0.0471 0.0000
v 0.554801 3.996861 -1.488944 0.1059 0.0471 0.0000
v 0.266362 4.132708 -1.502856 0.1059 0.0471 0.0000
v 0.162199 3.912847 -1.629212 0.1059 0.0471 0.0000
v 0.172703 3.782174 -1.606262 0.1059 0.0471 0.0000
v 0.000509 3.274707 -0.682087 0.1059 0.0471 0.0000
v -0.022118 3.825178 -0.360329 0.1059 0.0471 0.0000
v -0.321841 3.784112 -0.361552 0.1059 0.0471 0.0000
v 0.452548 4.867074 -1.430723 0.1255 0.0549 0.0039
v 0.439995 4.899600 -1.473987 0.1059 0.0471 0.0000
v 0.462622 4.745387 -1.600560 0.1059 0.0471 0.0000
vn 0.7332 -0.6532 -0.1889
vn -0.1169 0.8376 0.5336
vn -0.6425 -0.6543 -0.3989
vn -0.3923 -0.5455 0.7406
vn -0.1227 -0.6868 -0.7164
vn 0.8450 -0.4144 0.3380
vn -0.1444 -0.2696 -0.9521
vn 0.9232 -0.3828 0.0331
vn -0.4057 0.0547 -0.9124
vn -0.1161 -0.0461 -0.9922
vn -0.8894 -0.0916 0.4479
vn -0.2389 0.8661 -0.4391
vn 0.9120 0.0219 0.4097
vn -0.0622 -0.9113 -0.4070
vn -0.4872 0.8700 0.0762
vn 0.9982 0.0471 0.0373
vn 0.0821 -0.3394 -0.9370
vn -0.8828 0.4632 -0.0782
vn -0.7891 -0.1672 -0.5911
vn -0.3330 -0.5098 -0.7932
vn -0.9963 -0.0663 -0.0545
vn -0.5217 0.4274 0.7383
vn 0.5991 0.4860 0.6363
vn 0.9420 -0.2465 0.2275
vn 0.0106 -0.5691 -0.8222
vn -0.4837 0.5118 -0.7100
vn -0.7054 0.7051 0.0728
vn 0.4800 0.6798 0.5545
vn -0.8245 0.0051 -0.5658
vn 0.9920 0.0003 -0.1260
vn 0.8564 -0.1599 -0.4910
vn -0.7679 0.5513 -0.3262
vn 0.4125 0.8939 0.1756
vn -0.1092 -0.9779 -0.1784
vn 0.0612 -0.0578 0.9965
vn 0.8457 -0.4082 0.3438
vn -0.1293 -0.8267 -0.5475
vn -0.8983 -0.1076 0.4261
vn 0.8587 0.0320 -0.5114
vn -0.5675 0.4984 -0.6553
vn 0.9943 0.0459 0.0961
vn 0.9896 0.0457 -0.1365
vn -0.3777 -0.7182 0.5844
vn -0.7616 0.1490 0.6307
vn -0.4985 0.7073 -0.5012
vn -0.2820 -0.4286 -0.8583
vn 0.8709 -0.3105 0.3809
vn -0.2351 -0.8859 -0.3998
vn -0.4653 0.8817 0.0783
vn 0.9605 -0.2772 -0.0232
vn 0.8944 -0.1921 -0.4039
vn 0.3864 -0.6133 -0.6889
vn 0.3004 0.7037 0.6438
vn -0.8428 0.5309 0.0885
vn -0.7260 -0.4367 -0.5313
vn -0.1838 -0.3922 -0.9013
vn -0.9441 0.2928 0.1514
vn -0.0978 0.6923 0.7150
vn 0.3588 0.4879 0.7958
vn 0.7459 -0.2139 -0.6308
vn 0.9672 0.2302 -0.1076
vn -0.7092 -0.5923 0.3823
vn -0.3313 -0.5031 0.7982
vn -0.3734 -0.5443 0.7512
vn 0.3233 0.8062 0.4955
vn -0.7849 -0.1678 -0.5964
vn -0.6729 0.6623 -0.3296
vn 0.3480 0.9194 0.1832
vn -0.2654 -0.9527 -0.1477
vn 0.0881 -0.0631 0.9941
vn 0.9600 0.1936 -0.2022
vn -0.4536 0.5849 -0.6725
vn 0.9942 0.0500 0.0950
vn -0.3855 -0.7137 0.5849
vn -0.5762 0.1340 0.8063
vn 0.9531 -0.3012 -0.0302
vn 0.3853 0.6264 0.6776
vt 0.856849 0.500000
vt 0.924073 0.389602
vt 0.599260 0.500000
vt 0.886789 0.058943
vt 0.686318 0.856669
vt 0.470029 0.500000
vt 0.706842 0.021564
vt 0.324783 0.500000
vt 0.538855 0.142313
vt 0.251107 0.963111
vt 1.000000 0.500000
vt 0.080162 0.500000
vt 0.643733 0.443194
vt 0.171033 1.000000
vt 0.942515 1.000000
vt 0.000000 1.000000
vt 0.706400 1.000000
vt 0.475927 1.000000
vt 0.962023 1.000000
vt 0.000000 1.000000
vt 0.000000 1.000000
vt 0.952630 1.000000
vt 0.707838 1.000000
vt 0.444416 1.000000
vt 0.199172 1.000000
vt 0.940744 1.000000
vt 0.015399 1.000000
vt 0.218726 1.000000
vt 0.062844 1.000000
vt 0.936567 1.000000
vt 0.673001 1.000000
vt 0.324970 1.000000
vt 0.900101 1.000000
vt 0.000000 1.000000
vt 0.654535 1.000000
vt 0.262819 1.000000
vt 0.885780 1.000000
vt 0.040344 1.000000
vt 0.563679 1.000000
vt 0.273520 1.000000
vt 0.214185 1.000000
vt 0.915860 1.000000
vt 1.000000 1.000000
vt 0.000000 1.000000
vt 0.959456 1.000000
vt 0.012522 1.000000
vt 0.717949 1.000000
vt 0.460529 1.000000
vt 0.247618 1.000000
vt 0.169655 1.000000
vt 0.015179 0.799358
vt 0.982982 0.801239
vt 0.530394 0.845005
vt 0.389270 0.769510
vt 0.844922 1.000000
vt 0.022505 1.000000
vt 0.435163 1.000000
vt 0.592034 1.000000
vt 0.183087 1.000000
s 0
f 41/61/60 35/51/60 68/98/60
f 43/64/61 70/100/61 69/99/61
f 40/60/62 68/97/62 38/56/62
f 33/48/63 36/53/63 37/55/63
f 68/97/64 40/60/64 41/62/64
f 41/61/65 64/93/65 42/63/65
f 48/71/66 45/67/66 62/90/66
f 44/65/67 63/91/67 64/93/67
f 48/71/68 50/74/68 49/73/68
f 48/71/69 49/73/69 45/67/69
f 47/70/70 50/74/70 48/71/70
f 51/75/71 56/82/71 54/80/71
f 54/79/72 57/83/72 55/81/72
f 55/81/73 58/85/73 56/82/73
f 56/82/74 59/86/74 57/84/74
f 57/83/75 71/101/75 58/85/75
f 58/85/76 72/103/76 59/86/76
f 65/94/77 47/70/77 66/95/77
f 66/95/78 48/71/78 67/96/78
f 67/96/79 48/71/79 63/92/79
f 37/54/80 38/56/80 39/58/80
f 70/100/81 37/54/81 36/52/81
f 69/99/82 36/52/82 34/49/82
f 35/51/83 34/49/83 33/47/83
f 39/57/84 68/98/84 33/47/84
f 72/103/85 73/105/85 60/87/85
f 43/64/86 38/56/86 70/100/86
f 42/63/87 69/99/87 35/51/87
f 66/95/88 40/60/88 38/56/88
f 35/51/89 41/61/89 42/63/89
f 46/69/90 61/88/90 45/68/90
f 66/95/91 43/64/91 65/94/91
f 65/94/92 42/63/92 64/93/92
f 67/96/93 41/62/93 40/60/93
f 52/77/94 47/70/94 46/69/94
f 41/61/95 44/65/95 64/93/95
f 44/66/96 67/96/96 63/92/96
f 47/70/97 53/78/97 50/74/97
f 49/72/98 46/69/98 45/68/98
f 53/78/99 49/73/99 50/74/99
f 55/81/100 51/76/100 54/79/100
f 52/77/101 49/72/101 51/76/101
f 53/78/102 55/81/102 56/82/102
f 60/87/103 57/84/103 59/86/103
f 51/75/104 53/78/104 56/82/104
f 59/86/105 72/103/105 60/87/105
f 55/81/106 57/83/106 58/85/106
f 56/82/107 58/85/107 59/86/107
f 54/80/108 56/82/108 57/84/108
f 61/88/109 64/93/109 63/91/109
f 58/85/110 71/101/110 72/103/110
f 63/91/111 62/89/111 61/88/111
f 46/69/112 65/94/112 64/93/112
f 66/95/113 47/70/113 48/71/113
f 63/92/114 48/71/114 62/90/114
f 39/58/115 38/56/115 68/97/115
f 37/54/116 70/100/116 38/56/116
f 69/99/117 70/100/117 36/52/117
f 35/51/118 69/99/118 34/49/118
f 68/98/119 35/51/119 33/47/119
f 72/103/120 71/101/120 73/104/120
f 71/102/121 60/87/121 73/105/121
f 37/55/122 39/59/122 33/48/122
f 33/48/123 34/50/123 36/53/123
f 42/63/124 43/64/124 69/99/124
f 66/95/125 67/96/125 40/60/125
f 66/95/126 38/56/126 43/64/126
f 65/94/127 43/64/127 42/63/127
f 67/96/128 44/66/128 41/62/128
f 52/77/129 53/78/129 47/70/129
f 49/72/130 52/77/130 46/69/130
f 53/78/131 51/75/131 49/73/131
f 55/81/132 52/77/132 51/76/132
f 53/78/133 52/77/133 55/81/133
f 60/87/134 71/102/134 57/84/134
f 61/88/135 46/69/135 64/93/135
f 46/69/136 47/70/136 65/94/136
