# Blender 3.3.1
# www.blender.org
mtllib graveHigh.mtl
o GraveLow
v 0.688602 -0.068546 0.225737 0.5882 0.5451 0.5569
v 0.483941 0.153460 -0.231206 0.5882 0.5451 0.5569
v -0.688602 -0.068546 0.225737 0.5882 0.5451 0.5569
v -0.483941 0.153460 -0.231206 0.5882 0.5451 0.5569
v 0.839690 1.779116 0.275267 0.5882 0.5451 0.5569
v 0.598723 1.557110 -0.269798 0.5882 0.5451 0.5569
v -0.598724 1.557110 -0.269798 0.5882 0.5451 0.5569
v -0.559793 1.779116 0.275267 0.5882 0.5451 0.5569
v -0.367905 2.005860 0.275267 0.5882 0.5451 0.5569
v 0.000000 2.109856 0.275267 0.5882 0.5451 0.5569
v 0.365264 2.008981 0.275267 0.5882 0.5451 0.5569
v 0.559793 1.779116 0.275267 0.5882 0.5451 0.5569
v 0.456826 1.557110 -0.269798 0.5882 0.5451 0.5569
v 0.240070 1.813224 -0.270445 0.5882 0.5451 0.5569
v 0.000695 1.879353 -0.269589 0.5882 0.5451 0.5569
v -0.242238 1.810662 -0.270459 0.5882 0.5451 0.5569
v -0.456826 1.557110 -0.269798 0.5882 0.5451 0.5569
v 0.688602 -0.068546 -0.225737 0.5882 0.5451 0.5569
v -0.559793 1.779116 -0.275267 0.5882 0.5451 0.5569
v 0.559793 1.779116 -0.275267 0.5882 0.5451 0.5569
v -0.367905 2.005860 -0.275267 0.5882 0.5451 0.5569
v 0.483941 0.156105 -0.123339 0.5882 0.5451 0.5569
v -0.483941 0.156105 -0.123339 0.5882 0.5451 0.5569
v -0.456826 1.559756 -0.161931 0.5882 0.5451 0.5569
v -0.598724 1.559756 -0.161930 0.5882 0.5451 0.5569
v 0.598723 1.559756 -0.161931 0.5882 0.5451 0.5569
v 0.456826 1.559756 -0.161931 0.5882 0.5451 0.5569
v 0.240070 1.815869 -0.162577 0.5882 0.5451 0.5569
v 0.000695 1.881998 -0.161721 0.5882 0.5451 0.5569
v -0.242238 1.813307 -0.162591 0.5882 0.5451 0.5569
v 0.839690 1.779116 -0.142425 0.5882 0.5451 0.5569
v 0.796725 1.253696 -0.261182 0.5882 0.5451 0.5569
v 0.742005 1.689117 -0.273050 0.5882 0.5451 0.5569
v 0.315609 1.931338 -0.273355 0.5882 0.5451 0.5569
v 0.365264 2.008981 -0.187186 0.5882 0.5451 0.5569
v 0.519403 1.826843 -0.275267 0.5882 0.5451 0.5569
v -0.000000 2.109856 -0.187186 0.5882 0.5451 0.5569
v 0.000276 2.018431 -0.273015 0.5882 0.5451 0.5569
v -0.303410 2.024091 -0.275267 0.5882 0.5451 0.5569
v -0.839690 1.779116 0.094145 0.5882 0.5451 0.5569
v -0.824934 1.598660 0.270430 0.5882 0.5451 0.5569
v -0.658568 1.779116 0.275267 0.5882 0.5451 0.5569
v -0.688602 -0.068546 -0.132173 0.5882 0.5451 0.5569
v -0.602405 0.024957 -0.228041 0.5882 0.5451 0.5569
v -0.595071 -0.068546 -0.225737 0.5882 0.5451 0.5569
v -0.738202 1.685613 -0.272964 0.5882 0.5451 0.5569
v -0.839690 1.779116 -0.181703 0.5882 0.5451 0.5569
v -0.628554 1.779116 -0.275267 0.5882 0.5451 0.5569
vn -0.9967 -0.0815 -0.0000
vn -0.0000 -0.0000 1.0000
vn 0.0022 -0.0270 -0.9996
vn -0.0000 0.9997 -0.0245
vn -0.0067 -0.0203 -0.9998
vn 0.7633 0.6460 -0.0000
vn -0.7633 0.6460 -0.0000
vn -0.0000 -1.0000 -0.0000
vn -0.0000 1.0000 -0.0000
vn -0.0000 -0.0246 -0.9997
vn 0.7712 0.0797 -0.6316
vn 0.9967 -0.0815 -0.0000
vn 0.2662 0.9639 -0.0000
vn 0.0070 -0.0205 -0.9998
vn -0.2720 0.9623 -0.0000
vn 0.0165 -0.0140 -0.9998
vn -0.0000 -0.0275 -0.9996
vn 0.2719 -0.9620 0.0236
vn -0.0000 -0.9997 0.0245
vn 0.7632 -0.6459 0.0158
vn -0.7632 -0.6459 0.0158
vn 0.9967 0.0814 -0.0020
vn -0.2661 -0.9636 0.0236
vn -0.9967 0.0814 -0.0020
vn 0.3071 0.6122 -0.7286
vn 0.0182 0.6844 -0.7289
vn 0.1862 0.6742 -0.7147
vn -0.0166 -0.0140 -0.9998
vn -0.5975 0.5348 0.5975
vn -0.0024 -0.0272 -0.9996
vn -0.7054 -0.0727 -0.7051
vn -0.3691 0.4123 -0.8329
vn -0.7048 -0.0765 -0.7053
vn -0.0000 -0.0268 0.9996
vn -0.0022 -0.0266 -0.9996
vn 0.0012 -0.0276 -0.9996
vn -0.0104 -0.0247 -0.9996
vn 0.0105 -0.0246 -0.9996
vn 0.0059 -0.0208 -0.9998
vn 0.0168 -0.0168 -0.9997
vn -0.0000 -0.0026 -1.0000
vn -0.0000 0.0128 -0.9999
vn -0.0000 -0.0025 -1.0000
vn 0.1851 0.6729 -0.7162
vn -0.0188 -0.0159 -0.9997
vn -0.0165 -0.0165 -0.9997
vn 0.0028 -0.0273 -0.9996
vn -0.7031 -0.0766 -0.7069
vn 0.3274 0.6458 -0.6898
vt 0.000000 0.000000
vt 1.000000 0.154720
vt 0.000000 1.000000
vt 1.000000 0.845279
vt 0.000000 0.000000
vt 1.000000 0.137097
vt 1.000000 0.862902
vt 0.000000 0.833333
vt 0.000000 0.719072
vt 0.000000 0.500000
vt 0.000000 0.282500
vt 0.000000 0.166667
vt 1.000000 0.222960
vt 1.000000 0.356320
vt 1.000000 0.499585
vt 1.000000 0.644987
vt 1.000000 0.777039
vt 1.000000 0.000000
vt 1.000000 0.833333
vt 1.000000 0.166667
vt 1.000000 0.719072
vt 1.000000 0.154720
vt 1.000000 0.845279
vt 1.000000 0.777039
vt 1.000000 0.862902
vt 1.000000 0.137097
vt 1.000000 0.222960
vt 1.000000 0.356320
vt 1.000000 0.499585
vt 1.000000 0.644987
vt 0.758703 0.000000
vt 1.000000 0.000000
vt 1.000000 0.055578
vt 1.000000 0.311780
vt 1.000000 0.282892
vt 0.840008 0.282501
vt 1.000000 0.190717
vt 0.840008 0.500000
vt 0.995909 0.485878
vt 1.000000 0.499835
vt 1.000000 0.680668
vt 0.328994 1.000000
vt 0.000000 1.000000
vt 0.000000 0.892149
vt 0.792758 1.000000
vt 1.000000 1.000000
vt 1.000000 0.934836
vt 1.000000 0.932086
vt 1.000000 0.942258
vt 1.000000 1.000128
vt 0.830048 1.000000
vt 1.000000 0.874277
s 0
usemtl Stone.022
f 41/43/1 40/42/1 47/51/1
f 12/12/2 10/10/2 8/8/2
f 6/6/3 33/33/3 32/32/3
f 4/4/4 22/22/4 2/2/4
f 14/14/5 38/40/5 34/34/5
f 35/36/6 12/12/6 36/37/6
f 21/21/7 8/8/7 9/9/7
f 3/3/8 43/45/8 45/48/8
f 48/52/9 47/51/9 40/42/9
f 7/7/10 48/52/10 19/19/10
f 31/31/11 32/32/11 33/33/11
f 32/32/12 31/31/12 5/5/12
f 35/36/13 10/10/13 11/11/13
f 16/16/14 39/41/14 38/40/14
f 39/41/15 21/21/15 9/9/15
f 16/16/16 19/19/16 21/21/16
f 23/23/17 24/24/17 27/27/17
f 15/15/18 30/30/18 16/16/18
f 13/13/19 26/26/19 27/27/19
f 7/7/19 24/24/19 25/25/19
f 16/16/20 24/24/20 17/17/20
f 14/14/21 27/27/21 28/28/21
f 4/4/22 25/25/22 23/23/22
f 15/15/23 28/28/23 29/29/23
f 2/2/24 26/26/24 6/6/24
f 20/20/10 33/33/10 6/6/10
f 31/31/9 20/20/9 12/12/9
f 34/34/25 35/35/25 36/37/25
f 37/38/26 38/39/26 39/41/26
f 34/34/27 37/38/27 35/36/27
f 14/14/28 34/34/28 36/37/28
f 40/42/29 41/43/29 42/44/29
f 7/7/30 44/47/30 46/49/30
f 43/45/31 44/46/31 45/48/31
f 46/49/32 47/50/32 48/52/32
f 46/49/33 43/45/33 47/51/33
f 2/2/10 18/18/10 45/48/10
f 47/51/1 43/45/1 41/43/1
f 43/45/1 3/3/1 41/43/1
f 41/43/34 3/3/34 8/8/34
f 3/3/34 1/1/34 8/8/34
f 1/1/34 5/5/34 12/12/34
f 12/12/2 11/11/2 10/10/2
f 10/10/2 9/9/2 8/8/2
f 8/8/34 42/44/34 41/43/34
f 1/1/34 12/12/34 8/8/34
f 18/18/35 2/2/35 32/32/35
f 2/2/36 6/6/36 32/32/36
f 4/4/4 23/23/4 22/22/4
f 6/6/10 13/13/10 20/20/10
f 14/14/37 15/15/37 38/40/37
f 11/11/6 12/12/6 35/36/6
f 12/12/6 20/20/6 36/37/6
f 21/21/7 19/19/7 8/8/7
f 18/18/8 1/1/8 45/48/8
f 1/1/8 3/3/8 45/48/8
f 42/44/9 8/8/9 40/42/9
f 8/8/9 19/19/9 40/42/9
f 19/19/9 48/52/9 40/42/9
f 19/19/10 17/17/10 7/7/10
f 7/7/10 46/49/10 48/52/10
f 5/5/12 1/1/12 32/32/12
f 1/1/12 18/18/12 32/32/12
f 35/36/13 37/38/13 10/10/13
f 38/40/38 15/15/38 16/16/38
f 16/16/39 21/21/39 39/41/39
f 9/9/15 10/10/15 37/38/15
f 37/38/15 39/41/15 9/9/15
f 16/16/40 17/17/40 19/19/40
f 26/26/17 22/22/17 27/27/17
f 22/22/17 23/23/17 27/27/17
f 23/23/17 25/25/17 24/24/17
f 24/24/41 30/30/41 27/27/41
f 30/30/42 29/29/42 28/28/42
f 27/27/43 30/30/43 28/28/43
f 15/15/18 29/29/18 30/30/18
f 13/13/19 6/6/19 26/26/19
f 7/7/19 17/17/19 24/24/19
f 16/16/20 30/30/20 24/24/20
f 14/14/21 13/13/21 27/27/21
f 4/4/22 7/7/22 25/25/22
f 15/15/23 14/14/23 28/28/23
f 2/2/24 22/22/24 26/26/24
f 12/12/9 5/5/9 31/31/9
f 34/34/44 38/40/44 37/38/44
f 20/20/45 13/13/45 36/37/45
f 13/13/46 14/14/46 36/37/46
f 7/7/47 4/4/47 44/47/47
f 46/49/48 44/47/48 43/45/48
f 44/47/10 4/4/10 45/48/10
f 4/4/10 2/2/10 45/48/10
f 20/20/49 31/31/49 33/33/49
