# Blender 3.3.1
# www.blender.org
mtllib CubeGrave2.mtl
o Plane.005
v -0.689411 0.070978 0.192481 0.4589 0.4589 0.4628
v -0.609630 0.000000 0.189367 0.4589 0.4589 0.4628
v -0.617508 0.071392 0.264034 0.4589 0.4589 0.4628
v -0.662689 0.020703 0.190260 0.4589 0.4589 0.4628
v -0.654312 0.030086 0.231961 0.4589 0.4589 0.4628
v -0.611846 0.020996 0.240856 0.4589 0.4589 0.4628
v -0.668260 0.071185 0.243058 0.4589 0.4589 0.4628
v 0.617508 0.071392 0.264034 0.4589 0.4589 0.4628
v 0.609630 0.000000 0.189367 0.4589 0.4589 0.4628
v 0.689411 0.070978 0.192481 0.4589 0.4589 0.4628
v 0.611846 0.020996 0.240856 0.4589 0.4589 0.4628
v 0.654312 0.030086 0.231961 0.4589 0.4589 0.4628
v 0.662689 0.020703 0.190260 0.4589 0.4589 0.4628
v 0.668260 0.071185 0.243058 0.4589 0.4589 0.4628
v -0.689411 0.070978 -0.192481 0.4589 0.4589 0.4628
v -0.617508 0.071392 -0.264034 0.4589 0.4589 0.4628
v -0.609630 0.000000 -0.189367 0.4589 0.4589 0.4628
v -0.668260 0.071185 -0.243058 0.4589 0.4589 0.4628
v -0.654312 0.030086 -0.231961 0.4589 0.4589 0.4628
v -0.611846 0.020996 -0.240856 0.4589 0.4589 0.4628
v -0.662689 0.020703 -0.190260 0.4589 0.4589 0.4628
v 0.689411 0.070978 -0.192481 0.4589 0.4589 0.4628
v 0.609630 0.000000 -0.189367 0.4589 0.4589 0.4628
v 0.617508 0.071392 -0.264034 0.4589 0.4589 0.4628
v 0.662689 0.020703 -0.190260 0.4589 0.4589 0.4628
v 0.654312 0.030086 -0.231961 0.4589 0.4589 0.4628
v 0.611846 0.020996 -0.240856 0.4589 0.4589 0.4628
v 0.668260 0.071185 -0.243058 0.4589 0.4589 0.4628
v -0.885938 1.748139 0.267742 0.4589 0.4589 0.4628
v -0.813938 1.747725 0.339258 0.4589 0.4589 0.4628
v -0.822791 1.819116 0.270998 0.4589 0.4589 0.4628
v -0.864738 1.747932 0.318301 0.4589 0.4589 0.4628
v -0.860422 1.789030 0.310893 0.4589 0.4589 0.4628
v -0.820087 1.798120 0.320603 0.4589 0.4589 0.4628
v -0.870999 1.798413 0.270034 0.4589 0.4589 0.4628
v 0.813938 1.747725 0.339258 0.4589 0.4589 0.4628
v 0.885938 1.748139 0.267742 0.4589 0.4589 0.4628
v 0.822791 1.819116 0.270998 0.4589 0.4589 0.4628
v 0.864738 1.747932 0.318301 0.4589 0.4589 0.4628
v 0.860422 1.789030 0.310893 0.4589 0.4589 0.4628
v 0.870999 1.798413 0.270034 0.4589 0.4589 0.4628
v 0.820087 1.798120 0.320603 0.4589 0.4589 0.4628
v -0.885938 1.748139 -0.267742 0.4589 0.4589 0.4628
v -0.822791 1.819116 -0.270998 0.4589 0.4589 0.4628
v -0.813938 1.747725 -0.339258 0.4589 0.4589 0.4628
v -0.870999 1.798413 -0.270034 0.4589 0.4589 0.4628
v -0.860422 1.789030 -0.310893 0.4589 0.4589 0.4628
v -0.820087 1.798120 -0.320603 0.4589 0.4589 0.4628
v -0.864738 1.747932 -0.318301 0.4589 0.4589 0.4628
v 0.885938 1.748139 -0.267742 0.4589 0.4589 0.4628
v 0.813938 1.747725 -0.339258 0.4589 0.4589 0.4628
v 0.822791 1.819116 -0.270998 0.4589 0.4589 0.4628
v 0.864738 1.747932 -0.318301 0.4589 0.4589 0.4628
v 0.860422 1.789030 -0.310893 0.4589 0.4589 0.4628
v 0.820087 1.798120 -0.320603 0.4589 0.4589 0.4628
v 0.870999 1.798413 -0.270034 0.4589 0.4589 0.4628
vn -0.0000 -0.0448 0.9990
vn -0.0000 1.0000 -0.0000
vn 0.9932 -0.1164 -0.0000
vn -0.0000 -0.0448 -0.9990
vn -0.0000 -1.0000 -0.0000
vn -0.9932 -0.1163 0.0005
vn -0.5424 -0.6285 0.5575
vn -0.7007 -0.0929 0.7074
vn 0.0005 -1.0000 -0.0001
vn -0.7691 -0.6244 0.1368
vn -0.0001 -0.0446 0.9990
vn -0.1014 -0.8218 0.5607
vn 0.0017 -0.0465 0.9989
vn 0.5424 -0.6285 0.5575
vn 0.7027 -0.0930 0.7054
vn -0.0000 -1.0000 0.0003
vn 0.1431 -0.6024 0.7853
vn 0.9934 -0.1149 -0.0010
vn 0.5275 -0.8411 0.1197
vn -0.9934 -0.1149 0.0010
vn -0.5424 -0.6285 -0.5575
vn -0.6641 -0.7473 0.0226
vn -0.0017 -0.0465 -0.9989
vn -0.7873 -0.2258 -0.5737
vn -0.0000 -1.0000 -0.0003
vn -0.1431 -0.6024 -0.7853
vn 0.9932 -0.1163 -0.0005
vn 0.5424 -0.6285 -0.5575
vn 0.7007 -0.0929 -0.7074
vn -0.0005 -1.0000 0.0001
vn 0.7691 -0.6244 -0.1368
vn 0.0001 -0.0446 -0.9990
vn 0.1014 -0.8218 -0.5607
vn -0.9932 -0.1161 -0.0004
vn -0.6067 0.5202 0.6011
vn -0.7448 0.6668 -0.0263
vn -0.0000 -0.0446 0.9990
vn -0.8201 0.0471 0.5703
vn 0.0011 1.0000 -0.0016
vn -0.1176 0.5373 0.8351
vn -0.0010 -0.0455 0.9990
vn 0.6067 0.5202 0.6011
vn -0.0246 0.6938 0.7198
vn 0.9934 -0.1144 0.0014
vn 0.5667 0.0277 0.8235
vn 0.0001 1.0000 -0.0004
vn 0.8513 0.5069 0.1352
vn -0.9934 -0.1143 -0.0014
vn -0.6067 0.5202 -0.6011
vn -0.6967 -0.1388 -0.7038
vn -0.0020 1.0000 -0.0015
vn -0.8506 0.5080 -0.1353
vn 0.0010 -0.0455 -0.9990
vn -0.1770 0.7911 -0.5855
vn 0.9932 -0.1161 0.0004
vn 0.6067 0.5202 -0.6011
vn 0.7449 0.6668 0.0243
vn -0.0000 -0.0446 -0.9990
vn 0.8201 0.0471 -0.5703
vn 0.0002 1.0000 0.0002
vn 0.1176 0.5373 -0.8351
vn -0.9932 -0.1164 -0.0000
vt 0.000000 0.133494
vt 0.052462 0.136992
vt 0.050104 0.000000
vt 0.000000 0.135279
vt 0.006554 0.018447
vt 0.050835 0.000000
vt 0.000000 0.000000
vt 0.949896 0.000000
vt 0.947538 0.136992
vt 1.000000 0.133494
vt 0.949165 0.000000
vt 0.993446 0.018447
vt 1.000000 0.135279
vt 1.000000 0.000000
vt 0.000000 0.866506
vt 0.050104 1.000000
vt 0.052462 0.863008
vt 0.000000 1.000000
vt 0.006554 0.981553
vt 0.050835 1.000000
vt 0.000000 0.864721
vt 1.000000 0.866506
vt 0.947538 0.863008
vt 0.949896 1.000000
vt 1.000000 0.864721
vt 0.993446 0.981553
vt 0.949165 1.000000
vt 1.000000 1.000000
vt 0.000000 0.106988
vt 0.041925 0.000000
vt 0.039957 0.104338
vt 0.000000 0.000000
vt 0.006306 0.015364
vt 0.041469 0.000000
vt 0.000000 0.105746
vt 0.958075 0.000000
vt 1.000000 0.106988
vt 0.960043 0.104338
vt 1.000000 0.000000
vt 0.993694 0.015364
vt 1.000000 0.105746
vt 0.958531 0.000000
vt 0.000000 0.893012
vt 0.039957 0.895662
vt 0.041925 1.000000
vt 0.000000 0.894254
vt 0.006306 0.984636
vt 0.041469 1.000000
vt 0.000000 1.000000
vt 1.000000 0.893012
vt 0.958075 1.000000
vt 0.960043 0.895662
vt 1.000000 1.000000
vt 0.993694 0.984636
vt 0.958531 1.000000
vt 1.000000 0.894254
s 1
usemtl Material.001
f 8/8/1 30/30/1 3/3/1
f 38/38/2 44/44/2 31/31/2
f 22/22/3 37/37/3 10/10/3
f 16/16/4 51/51/4 24/24/4
f 17/17/5 9/9/5 2/2/5
f 1/1/6 5/5/7 7/7/8
f 2/2/9 5/5/7 4/4/10
f 3/3/11 5/5/7 6/6/12
f 8/8/13 12/12/14 14/14/15
f 9/9/16 12/12/14 11/11/17
f 10/10/18 12/12/14 13/13/19
f 15/15/20 19/19/21 21/21/22
f 16/16/23 19/19/21 18/18/24
f 17/17/25 19/19/21 20/20/26
f 22/22/27 26/26/28 28/28/29
f 23/23/30 26/26/28 25/25/31
f 24/24/32 26/26/28 27/27/33
f 29/29/34 33/33/35 35/35/36
f 30/30/37 33/33/35 32/32/38
f 31/31/39 33/33/35 34/34/40
f 36/36/41 40/40/42 42/42/43
f 37/37/44 40/40/42 39/39/45
f 38/38/46 40/40/42 41/41/47
f 43/43/48 47/47/49 49/49/50
f 44/44/51 47/47/49 46/46/52
f 45/45/53 47/47/49 48/48/54
f 50/50/55 54/54/56 56/56/57
f 51/51/58 54/54/56 53/53/59
f 52/52/60 54/54/56 55/55/61
f 2/2/9 21/21/22 17/17/25
f 4/4/10 15/15/20 21/21/22
f 9/9/16 6/6/12 2/2/9
f 11/11/17 3/3/11 6/6/12
f 23/23/30 13/13/19 9/9/16
f 25/25/31 10/10/18 13/13/19
f 17/17/25 27/27/33 23/23/30
f 20/20/26 24/24/32 27/27/33
f 29/29/34 46/46/52 43/43/48
f 46/46/52 31/31/39 44/44/51
f 36/36/41 34/34/40 30/30/37
f 42/42/43 31/31/39 34/34/40
f 50/50/55 41/41/47 37/37/44
f 56/56/57 38/38/46 41/41/47
f 45/45/53 55/55/61 51/51/58
f 48/48/54 52/52/60 55/55/61
f 15/15/20 49/49/50 18/18/24
f 18/18/24 45/45/53 16/16/23
f 22/22/27 53/53/59 50/50/55
f 28/28/29 51/51/58 53/53/59
f 10/10/18 39/39/45 14/14/15
f 14/14/15 36/36/41 8/8/13
f 1/1/6 32/32/38 29/29/34
f 7/7/8 30/30/37 32/32/38
f 1/1/62 43/43/62 15/15/62
f 8/8/1 36/36/1 30/30/1
f 38/38/2 52/52/2 44/44/2
f 22/22/3 50/50/3 37/37/3
f 16/16/4 45/45/4 51/51/4
f 17/17/5 23/23/5 9/9/5
f 1/1/6 4/4/10 5/5/7
f 2/2/9 6/6/12 5/5/7
f 3/3/11 7/7/8 5/5/7
f 8/8/13 11/11/17 12/12/14
f 9/9/16 13/13/19 12/12/14
f 10/10/18 14/14/15 12/12/14
f 15/15/20 18/18/24 19/19/21
f 16/16/23 20/20/26 19/19/21
f 17/17/25 21/21/22 19/19/21
f 22/22/27 25/25/31 26/26/28
f 23/23/30 27/27/33 26/26/28
f 24/24/32 28/28/29 26/26/28
f 29/29/34 32/32/38 33/33/35
f 30/30/37 34/34/40 33/33/35
f 31/31/39 35/35/36 33/33/35
f 36/36/41 39/39/45 40/40/42
f 37/37/44 41/41/47 40/40/42
f 38/38/46 42/42/43 40/40/42
f 43/43/48 46/46/52 47/47/49
f 44/44/51 48/48/54 47/47/49
f 45/45/53 49/49/50 47/47/49
f 50/50/55 53/53/59 54/54/56
f 51/51/58 55/55/61 54/54/56
f 52/52/60 56/56/57 54/54/56
f 2/2/9 4/4/10 21/21/22
f 4/4/10 1/1/6 15/15/20
f 9/9/16 11/11/17 6/6/12
f 11/11/17 8/8/13 3/3/11
f 23/23/30 25/25/31 13/13/19
f 25/25/31 22/22/27 10/10/18
f 17/17/25 20/20/26 27/27/33
f 20/20/26 16/16/23 24/24/32
f 29/29/34 35/35/36 46/46/52
f 46/46/52 35/35/36 31/31/39
f 36/36/41 42/42/43 34/34/40
f 42/42/43 38/38/46 31/31/39
f 50/50/55 56/56/57 41/41/47
f 56/56/57 52/52/60 38/38/46
f 45/45/53 48/48/54 55/55/61
f 48/48/54 44/44/51 52/52/60
f 15/15/20 43/43/48 49/49/50
f 18/18/24 49/49/50 45/45/53
f 22/22/27 28/28/29 53/53/59
f 28/28/29 24/24/32 51/51/58
f 10/10/18 37/37/44 39/39/45
f 14/14/15 39/39/45 36/36/41
f 1/1/6 7/7/8 32/32/38
f 7/7/8 3/3/11 30/30/37
f 1/1/62 29/29/62 43/43/62
