# Blender 3.3.1
# www.blender.org
mtllib new-graveyard.mtl
o Gravestone.001
v 2.147493 0.442921 1.988325
v 2.587518 0.598035 2.025612
v 2.690890 0.479289 0.944975
v 2.969411 0.623594 1.292358
v 2.167881 2.013498 2.199338
v 2.660580 1.784686 2.215677
v 3.133051 1.816306 1.308508
v 2.720069 2.050453 1.139109
v 2.658766 2.238098 1.298702
v 2.520212 2.316770 1.583945
v 2.369681 2.221390 1.854337
v 2.278319 2.020889 1.987292
v 2.716568 1.788433 2.108177
v 2.818856 2.011774 1.960283
v 2.916862 2.074372 1.782749
v 3.009006 2.022332 1.594737
v 3.077064 1.812559 1.416008
v 2.488527 0.404413 2.164600
v 3.135930 2.003496 1.354061
v 2.694180 1.973931 2.202244
v 3.074627 2.191141 1.513654
v 2.506205 0.609484 1.983661
v 2.888098 0.635043 1.250408
v 2.995751 1.824008 1.374057
v 3.051739 1.827755 1.266558
v 2.579268 1.796134 2.173727
v 2.635255 1.799881 2.066227
v 2.737544 2.023223 1.918332
v 2.835549 2.085821 1.740798
v 2.927694 2.033780 1.552787
v 2.483396 1.977871 2.362422
v 2.556666 1.522318 2.343285
v 2.614892 1.892818 2.333774
v 2.653111 1.971183 2.281098
v 2.798756 2.109917 2.026054
v 2.719007 2.181945 2.034898
v 2.713150 2.015562 2.174638
v 2.869539 2.277325 1.764506
v 2.928453 2.192294 1.792492
v 3.050338 2.204932 1.563658
v 2.967323 2.042396 0.997781
v 2.816871 1.903672 0.928813
v 2.759042 2.053062 1.064279
v 2.961247 0.448761 1.084718
v 3.005595 0.517776 1.193316
v 2.995020 0.438310 1.192108
v 3.198642 1.928935 1.212137
v 3.175691 2.018867 1.105484
v 3.163061 2.005312 1.301969
vn 0.4541 -0.0503 -0.8895
vn -0.8839 0.0998 -0.4569
vn 0.8806 -0.1267 0.4567
vn 0.0960 0.9918 0.0846
vn 0.8818 -0.1243 0.4549
vn 0.8853 -0.1198 0.4493
vn -0.3044 0.6189 0.7241
vn 0.4005 0.6660 -0.6293
vn -0.0744 -0.9945 -0.0734
vn 0.0744 0.9945 0.0734
vn 0.2082 -0.0076 0.9781
vn -0.4662 -0.1119 0.8776
vn -0.0512 0.9504 0.3067
vn 0.8789 -0.1204 0.4615
vn 0.1971 0.9654 -0.1705
vn 0.8750 -0.1142 0.4704
vn 0.8815 -0.1271 0.4547
vn -0.2179 -0.9628 0.1597
vn -0.0960 -0.9918 -0.0846
vn -0.4144 -0.6644 0.6220
vn 0.2904 -0.6172 -0.7313
vn -0.4523 0.0500 0.8904
vn 0.0303 -0.9478 -0.3174
vn 0.4680 0.1116 -0.8767
vn 0.4147 0.3596 0.8359
vn 0.5478 0.5267 0.6500
vn 0.6868 0.6073 0.3994
vn 0.5959 0.5934 0.5411
vn 0.8903 -0.1132 0.4410
vn -0.2125 0.6100 -0.7634
vn 0.8827 -0.1268 0.4526
vn 0.9435 -0.1209 -0.3085
vn 0.9373 0.3383 0.0836
vn 0.9431 -0.1247 -0.3081
vn -0.8856 0.0731 -0.4587
vn 0.8826 -0.1262 0.4528
vn 0.8810 -0.1272 0.4558
vn 0.8866 -0.1240 0.4457
vn 0.8769 -0.1246 0.4642
vn 0.8794 -0.1207 0.4605
vn 0.8746 -0.1170 0.4704
vn 0.8837 -0.1024 0.4567
vn 0.8848 -0.0871 0.4577
vn 0.8837 -0.1023 0.4567
vn 0.5976 0.5920 0.5407
vn 0.8911 -0.1150 0.4389
vn 0.8900 -0.1156 0.4410
vn 0.8802 -0.1270 0.4572
vn 0.9438 -0.1250 -0.3060
vt 0.000000 0.000000
vt 1.000000 0.154720
vt 0.000000 1.000000
vt 1.000000 0.845279
vt 0.000000 0.000000
vt 1.000000 0.137097
vt 1.000000 0.862902
vt 0.000000 0.833333
vt 0.000000 0.719072
vt 0.000000 0.500000
vt 0.000000 0.282500
vt 0.000000 0.166667
vt 1.000000 0.222960
vt 1.000000 0.356320
vt 1.000000 0.499585
vt 1.000000 0.644987
vt 1.000000 0.777039
vt 1.000000 0.000000
vt 1.000000 0.833333
vt 1.000000 0.166667
vt 1.000000 0.719072
vt 1.000000 0.154720
vt 1.000000 0.845279
vt 1.000000 0.777039
vt 1.000000 0.862902
vt 1.000000 0.137097
vt 1.000000 0.222960
vt 1.000000 0.356320
vt 1.000000 0.499585
vt 1.000000 0.644987
vt 0.758703 0.000000
vt 1.000000 0.000000
vt 1.000000 0.055578
vt 1.000000 0.104687
vt 1.000000 0.311780
vt 1.000000 0.282892
vt 0.840008 0.282501
vt 1.000000 0.190717
vt 0.840008 0.500000
vt 0.995909 0.485878
vt 1.000000 0.499835
vt 1.000000 0.680668
vt 0.328994 1.000000
vt 0.000000 1.000000
vt 0.000000 0.892149
vt 0.792758 1.000000
vt 1.000000 1.000000
vt 1.000000 0.934836
vt 1.000000 0.932086
vt 1.000000 0.942258
vt 1.000000 1.000128
vt 0.830048 1.000000
vt 1.000000 0.874277
s 0
usemtl Stone
f 42/44/1 41/43/1 48/52/1
f 12/12/2 10/10/2 8/8/2
f 6/6/3 33/33/3 32/32/3
f 4/4/4 22/22/4 2/2/4
f 34/34/5 6/6/5 20/20/5
f 14/14/6 39/41/6 35/35/6
f 36/37/7 12/12/7 37/38/7
f 21/21/8 8/8/8 9/9/8
f 3/3/9 44/46/9 46/49/9
f 49/53/10 48/52/10 41/43/10
f 7/7/5 49/53/5 19/19/5
f 31/31/11 32/32/11 33/33/11
f 32/32/12 31/31/12 5/5/12
f 36/37/13 10/10/13 11/11/13
f 16/16/14 40/42/14 39/41/14
f 40/42/15 21/21/15 9/9/15
f 16/16/16 19/19/16 21/21/16
f 23/23/17 24/24/17 27/27/17
f 15/15/18 30/30/18 16/16/18
f 13/13/19 26/26/19 27/27/19
f 7/7/19 24/24/19 25/25/19
f 16/16/20 24/24/20 17/17/20
f 14/14/21 27/27/21 28/28/21
f 4/4/22 25/25/22 23/23/22
f 15/15/23 28/28/23 29/29/23
f 2/2/24 26/26/24 6/6/24
f 31/31/25 33/33/25 34/34/25
f 31/31/10 20/20/10 12/12/10
f 35/35/26 36/36/26 37/38/26
f 38/39/27 39/40/27 40/42/27
f 35/35/28 38/39/28 36/37/28
f 14/14/29 35/35/29 37/38/29
f 41/43/30 42/44/30 43/45/30
f 7/7/31 45/48/31 47/50/31
f 44/46/32 45/47/32 46/49/32
f 47/50/33 48/51/33 49/53/33
f 47/50/34 44/46/34 48/52/34
f 2/2/5 18/18/5 46/49/5
f 48/52/1 44/46/1 42/44/1
f 44/46/1 3/3/1 42/44/1
f 42/44/35 3/3/35 8/8/35
f 3/3/35 1/1/35 8/8/35
f 1/1/35 5/5/35 12/12/35
f 12/12/2 11/11/2 10/10/2
f 10/10/2 9/9/2 8/8/2
f 8/8/35 43/45/35 42/44/35
f 1/1/35 12/12/35 8/8/35
f 18/18/36 2/2/36 32/32/36
f 2/2/37 6/6/37 32/32/37
f 4/4/4 23/23/4 22/22/4
f 33/33/5 6/6/5 34/34/5
f 6/6/5 13/13/5 20/20/5
f 14/14/38 15/15/38 39/41/38
f 11/11/7 12/12/7 36/37/7
f 12/12/7 20/20/7 37/38/7
f 21/21/8 19/19/8 8/8/8
f 18/18/9 1/1/9 46/49/9
f 1/1/9 3/3/9 46/49/9
f 43/45/10 8/8/10 41/43/10
f 8/8/10 19/19/10 41/43/10
f 19/19/10 49/53/10 41/43/10
f 19/19/5 17/17/5 7/7/5
f 7/7/5 47/50/5 49/53/5
f 5/5/12 1/1/12 32/32/12
f 1/1/12 18/18/12 32/32/12
f 36/37/13 38/39/13 10/10/13
f 39/41/39 15/15/39 16/16/39
f 16/16/40 21/21/40 40/42/40
f 9/9/15 10/10/15 38/39/15
f 38/39/15 40/42/15 9/9/15
f 16/16/41 17/17/41 19/19/41
f 26/26/17 22/22/17 27/27/17
f 22/22/17 23/23/17 27/27/17
f 23/23/17 25/25/17 24/24/17
f 24/24/42 30/30/42 27/27/42
f 30/30/43 29/29/43 28/28/43
f 27/27/44 30/30/44 28/28/44
f 15/15/18 29/29/18 30/30/18
f 13/13/19 6/6/19 26/26/19
f 7/7/19 17/17/19 24/24/19
f 16/16/20 30/30/20 24/24/20
f 14/14/21 13/13/21 27/27/21
f 4/4/22 7/7/22 25/25/22
f 15/15/23 14/14/23 28/28/23
f 2/2/24 22/22/24 26/26/24
f 12/12/10 5/5/10 31/31/10
f 31/31/10 34/34/10 20/20/10f 35/35/45 39/41/45 38/39/45
f 20/20/46 13/13/46 37/38/46
f 13/13/47 14/14/47 37/38/47
f 7/7/48 4/4/48 45/48/48
f 47/50/49 45/48/49 44/46/49
f 45/48/5 4/4/5 46/49/5
f 4/4/5 2/2/5 46/49/5


