# Blender 3.3.1
# www.blender.org
mtllib Tree.mtl
o Tree.001
v 22.445366 0.863137 -13.759956 0.2784 0.0235 0.3059
v 22.530676 -0.275240 -13.879904 0.2784 0.0235 0.3059
v 22.845213 1.549021 -13.656947 0.2784 0.0235 0.3059
v 21.614737 -0.904120 -13.026587 0.2784 0.0235 0.3059
v 22.394327 2.314833 -13.369032 0.2784 0.0235 0.3059
v 22.331522 2.337239 -13.629924 0.2784 0.0235 0.3059
v 22.637197 2.294618 -13.308857 0.2784 0.0235 0.3059
v 22.143938 2.779626 -13.323118 0.2784 0.0235 0.3059
v 22.280935 2.947494 -13.405722 0.2784 0.0235 0.3059
v 21.522068 3.164802 -13.258500 0.2784 0.0235 0.3059
v 21.466742 3.264827 -13.236323 0.2784 0.0235 0.3059
v 20.362684 3.039331 -12.845359 0.2784 0.0235 0.3059
v 20.321541 3.067227 -12.911827 0.2784 0.0235 0.3059
v 20.307896 3.138160 -12.878593 0.2784 0.0235 0.3059
v 20.597979 2.843654 -13.067751 0.2784 0.0235 0.3059
v 20.626591 3.834829 -12.954637 0.2784 0.0235 0.3059
v 22.084864 3.610106 -13.581550 0.2784 0.0235 0.3059
v 22.265709 4.057460 -13.563843 0.2784 0.0235 0.3059
v 22.572977 4.982126 -13.573318 0.2784 0.0235 0.3059
v 22.622763 5.149097 -13.530285 0.2784 0.0235 0.3059
v 23.689358 4.117065 -14.032218 0.2784 0.0235 0.3059
v 23.380487 4.452474 -13.735943 0.2784 0.0235 0.3059
v 23.723631 4.614193 -14.120006 0.2784 0.0235 0.3059
v 23.258371 3.647721 -12.926151 0.2784 0.0235 0.3059
v 23.342480 3.724527 -12.761481 0.2784 0.0235 0.3059
v 23.475809 4.119079 -12.818369 0.2784 0.0235 0.3059
v 23.181852 2.988454 -11.951071 0.2784 0.0235 0.3059
v 22.180189 0.828291 -13.195915 0.2784 0.0235 0.3059
v 21.919550 0.648451 -13.800554 0.2784 0.0235 0.3059
v 22.561773 1.865385 -13.798863 0.2784 0.0235 0.3059
v 22.447041 3.038973 -13.657763 0.2784 0.0235 0.3059
v 22.848259 1.652709 -13.262609 0.2784 0.0235 0.3059
v 22.726601 3.030936 -13.426677 0.2784 0.0235 0.3059
v 22.689226 2.452042 -13.683145 0.2784 0.0235 0.3059
v 22.155750 2.775647 -13.620845 0.2784 0.0235 0.3059
v 22.442242 3.160606 -13.398472 0.2784 0.0235 0.3059
v 21.530243 3.347399 -13.341699 0.2784 0.0235 0.3059
v 22.690235 2.889968 -13.185398 0.2784 0.0235 0.3059
v 22.888746 2.922026 -13.365696 0.2784 0.0235 0.3059
v 22.836143 2.854370 -13.221128 0.2784 0.0235 0.3059
v 22.094614 2.692566 -13.502452 0.2784 0.0235 0.3059
v 21.450115 3.178691 -13.401323 0.2784 0.0235 0.3059
v 22.075268 3.770831 -13.438079 0.2784 0.0235 0.3059
v 21.485296 3.125084 -13.333051 0.2784 0.0235 0.3059
v 21.909260 3.949624 -13.652785 0.2784 0.0235 0.3059
v 22.207758 3.913314 -13.472709 0.2784 0.0235 0.3059
v 22.470663 5.072870 -13.493047 0.3255 0.1765 0.3490
v 21.684395 -0.214908 -13.544991 0.2784 0.0235 0.3059
v 22.068909 4.009037 -13.496602 0.2784 0.0235 0.3059
v 22.522001 5.054587 -13.597084 0.2784 0.0235 0.3059
v 22.100563 3.993677 -13.639015 0.2784 0.0235 0.3059
v 21.814083 -0.267932 -13.896232 0.2784 0.0235 0.3059
v 22.143665 -0.236060 -13.042574 0.2784 0.0235 0.3059
v 22.577717 5.016912 -13.465158 0.2941 0.1020 0.3216
v 21.791973 -0.267103 -13.185641 0.2784 0.0235 0.3059
v 22.590574 -0.107829 -13.308363 0.2784 0.0235 0.3059
v 23.346848 3.628162 -12.834424 0.2784 0.0235 0.3059
v 23.250429 3.604124 -12.758748 0.2784 0.0235 0.3059
v 23.224024 3.705080 -12.846815 0.2784 0.0235 0.3059
v 20.378199 5.523148 -14.392432 0.2784 0.0235 0.3059
v 22.132174 -0.896061 -12.803157 0.2784 0.0235 0.3059
v 21.431265 -0.894354 -13.556826 0.2784 0.0235 0.3059
v 22.184376 -0.893592 -14.256357 0.2784 0.0235 0.3059
v 22.884447 -0.895277 -13.504624 0.2784 0.0235 0.3059
v 23.181435 1.880928 -13.772863 0.2784 0.0235 0.3059
v 23.301111 1.953272 -13.511812 0.2784 0.0235 0.3059
v 23.280861 1.691728 -13.423752 0.2784 0.0235 0.3059
v 21.836489 0.749797 -13.539005 0.2784 0.0235 0.3059
v 22.531902 0.850295 -13.519022 0.2784 0.0235 0.3059
v 22.166426 0.100992 -13.970235 0.2784 0.0235 0.3059
v 22.428326 0.880448 -13.280597 0.2784 0.0235 0.3059
v 21.896032 0.634917 -13.272341 0.2784 0.0235 0.3059
v 22.753885 2.270425 -13.501979 0.2784 0.0235 0.3059
v 22.223669 2.945173 -13.556829 0.2784 0.0235 0.3059
v 21.345659 3.282789 -13.302008 0.2784 0.0235 0.3059
v 20.348526 3.113123 -12.809579 0.2784 0.0235 0.3059
v 21.084743 3.703451 -13.162473 0.2784 0.0235 0.3059
v 21.122885 3.689302 -13.058249 0.2784 0.0235 0.3059
v 20.139360 2.795621 -12.837191 0.2784 0.0235 0.3059
v 20.077501 2.784822 -12.732436 0.2784 0.0235 0.3059
v 20.044159 2.767200 -12.832768 0.2784 0.0235 0.3059
v 20.427885 2.616447 -13.021740 0.2784 0.0235 0.3059
v 20.470625 2.592187 -12.917739 0.2784 0.0235 0.3059
v 20.471376 2.514619 -12.966270 0.2784 0.0235 0.3059
v 20.681530 2.837673 -13.014944 0.2784 0.0235 0.3059
v 20.609734 2.833577 -12.954986 0.2784 0.0235 0.3059
v 20.479296 2.940288 -12.906072 0.2784 0.0235 0.3059
v 20.495470 2.984270 -12.980580 0.2784 0.0235 0.3059
v 21.148401 3.794949 -13.135420 0.2784 0.0235 0.3059
v 20.687382 3.798540 -12.866964 0.2784 0.0235 0.3059
v 20.626873 3.882158 -12.860971 0.2784 0.0235 0.3059
v 20.633558 3.507505 -12.955285 0.2784 0.0235 0.3059
v 20.538630 3.475734 -12.953741 0.2784 0.0235 0.3059
v 20.609632 3.468482 -12.866859 0.2784 0.0235 0.3059
v 20.782845 3.359495 -13.060955 0.2784 0.0235 0.3059
v 20.780945 3.293523 -12.976844 0.2784 0.0235 0.3059
v 22.191534 4.188761 -13.605055 0.2784 0.0235 0.3059
v 21.407660 4.501429 -13.837261 0.2784 0.0235 0.3059
v 21.421917 4.490892 -13.934686 0.2784 0.0235 0.3059
v 21.508808 4.533657 -13.925123 0.2784 0.0235 0.3059
v 21.490252 4.555303 -13.829997 0.2784 0.0235 0.3059
v 22.488905 5.559347 -13.517430 0.2784 0.0235 0.3059
v 22.595007 5.572075 -13.527411 0.2784 0.0235 0.3059
v 23.728836 5.019957 -14.060495 0.2784 0.0235 0.3059
v 23.719719 5.116973 -14.128924 0.2784 0.0235 0.3059
v 23.686390 5.041201 -14.142316 0.2784 0.0235 0.3059
v 23.746832 5.104280 -14.071025 0.2784 0.0235 0.3059
v 24.200819 4.711630 -14.394506 0.2784 0.0235 0.3059
v 24.127413 4.677931 -14.303631 0.2784 0.0235 0.3059
v 24.101065 4.683227 -14.397853 0.2784 0.0235 0.3059
v 24.066917 4.007791 -14.271054 0.2784 0.0235 0.3059
v 24.000334 4.089887 -14.265846 0.2784 0.0235 0.3059
v 24.078827 4.074713 -14.190528 0.2784 0.0235 0.3059
v 23.652361 4.045248 -14.021873 0.2784 0.0235 0.3059
v 23.735065 4.101474 -13.964766 0.2784 0.0235 0.3059
v 23.696419 4.033730 -13.950656 0.2784 0.0235 0.3059
v 23.276234 4.438694 -13.768274 0.2784 0.0235 0.3059
v 23.346302 4.446283 -13.847385 0.2784 0.0235 0.3059
v 23.509048 4.616473 -13.945555 0.2784 0.0235 0.3059
v 23.530001 4.693552 -13.868872 0.2784 0.0235 0.3059
v 23.479605 4.723823 -13.916880 0.2784 0.0235 0.3059
v 23.764421 4.609047 -14.030387 0.2784 0.0235 0.3059
v 21.274763 5.095572 -13.973539 0.2784 0.0235 0.3059
v 21.367411 5.138415 -13.984148 0.2784 0.0235 0.3059
v 21.337332 5.146949 -13.890993 0.2784 0.0235 0.3059
v 20.858608 5.583433 -14.235303 0.2784 0.0235 0.3059
v 20.822634 5.628109 -14.137596 0.2784 0.0235 0.3059
v 20.410810 5.458654 -14.449384 0.2784 0.0235 0.3059
v 20.868776 5.682874 -14.207265 0.2784 0.0235 0.3059
v 22.628252 3.014569 -13.296182 0.2784 0.0235 0.3059
v 23.612062 3.729119 -12.128583 0.2784 0.0235 0.3059
v 23.641634 3.806872 -12.123969 0.2784 0.0235 0.3059
v 23.571388 4.095494 -12.820190 0.2784 0.0235 0.3059
v 23.524504 4.126415 -12.724276 0.2784 0.0235 0.3059
v 23.529074 4.385801 -12.987697 0.2784 0.0235 0.3059
v 23.620626 4.342871 -13.012149 0.2784 0.0235 0.3059
v 23.537859 3.754504 -12.103449 0.2784 0.0235 0.3059
v 23.568434 3.831003 -12.094552 0.2784 0.0235 0.3059
v 23.622353 3.416134 -11.500956 0.2784 0.0235 0.3059
v 23.600220 3.460704 -11.429528 0.2784 0.0235 0.3059
v 23.676668 3.458267 -11.393999 0.2784 0.0235 0.3059
v 23.697887 3.413765 -11.461784 0.2784 0.0235 0.3059
v 23.329987 2.985037 -11.520693 0.2784 0.0235 0.3059
v 23.369894 2.913830 -11.493795 0.2784 0.0275 0.3059
v 23.424200 2.968902 -11.577178 0.2784 0.0235 0.3059
v 23.181089 2.899032 -12.015812 0.2784 0.0235 0.3059
v 23.279789 2.929183 -11.986446 0.2784 0.0235 0.3059
v 23.327208 3.294414 -12.043811 0.2784 0.0235 0.3059
v 23.360371 3.256034 -12.138251 0.2784 0.0235 0.3059
v 21.654881 -0.903885 -14.073009 0.2784 0.0235 0.3059
v 22.663239 -1.031548 -14.014485 0.2784 0.0235 0.3059
v 22.661470 -0.904581 -12.987335 0.2784 0.0235 0.3059
v 23.290262 1.634295 -13.682521 0.2784 0.0235 0.3059
vn -0.7992 -0.5839 0.1423
vn 0.4116 0.8129 0.4121
vn -0.5182 -0.5509 -0.6542
vn 0.5140 0.3195 -0.7961
vn 0.7788 -0.3576 0.5154
vn -0.7736 -0.4598 0.4360
vn 0.7411 0.5877 0.3247
vn 0.2352 0.1387 -0.9620
vn 0.7781 -0.1143 -0.6177
vn -0.9016 0.2861 0.3246
vn 0.3555 -0.2145 0.9097
vn -0.2266 0.1448 0.9632
vn -0.3381 0.1361 -0.9312
vn -0.9208 0.3013 0.2476
vn -0.8886 0.2553 -0.3811
vn 0.1056 -0.1516 -0.9828
vn 0.7242 0.2588 0.6392
vn 0.3576 -0.0092 0.9338
vn 0.0066 0.9413 0.3376
vn -0.7965 -0.5653 0.2147
vn -0.8027 -0.3339 -0.4942
vn -0.1067 0.3494 -0.9309
vn 0.6972 -0.6273 0.3470
vn -0.5723 0.6030 0.5557
vn -0.5270 0.2753 -0.8040
vn -0.7948 0.5850 0.1614
vn -0.5323 -0.5689 -0.6270
vn -0.4182 -0.8608 0.2902
vn 0.2592 -0.3743 -0.8904
vn -0.6339 -0.7734 -0.0030
vn 0.5803 0.3790 0.7208
vn -0.8410 -0.3660 -0.3986
vn 0.7674 0.4960 0.4063
vn -0.1668 0.4559 -0.8743
vn -0.5426 -0.6549 -0.5259
vn -0.3699 -0.1115 -0.9223
vn 0.8593 0.3197 -0.3994
vn -0.9534 -0.2305 0.1945
vn -0.0726 0.0210 0.9971
vn 0.1145 0.1328 0.9845
vn 0.4273 -0.0421 -0.9031
vn 0.3839 -0.1349 0.9135
vn -0.2650 0.2820 0.9221
vn 0.6824 0.7303 -0.0331
vn 0.7748 0.0466 0.6304
vn 0.0802 0.1086 0.9908
vn 0.4593 0.0129 0.8882
vn -0.6605 0.1894 0.7265
vn 0.7659 0.0584 0.6403
vn 0.5368 -0.1327 0.8332
vn 0.4186 -0.7279 0.5430
vn -0.1351 -0.9879 -0.0762
vn 0.4761 -0.0894 0.8748
vn -0.1794 -0.5526 0.8139
vn -0.6106 -0.7492 0.2566
vn -0.7109 -0.2578 -0.6544
vn -0.4113 0.0811 -0.9079
vn 0.8782 -0.4355 0.1978
vn -0.0418 -0.9984 -0.0383
vn 0.2006 -0.7178 0.6667
vn -0.6302 0.0343 -0.7757
vn -0.9635 -0.2419 -0.1148
vn -0.0757 -0.0823 -0.9937
vn -0.7861 -0.0343 0.6172
vn -0.1313 0.0680 0.9890
vn 0.0869 -0.4124 -0.9068
vn 0.5535 0.1731 -0.8146
vn 0.2784 0.6569 0.7007
vn 0.3713 0.2166 -0.9029
vn 0.0567 0.6768 -0.7340
vn -0.4126 0.8287 0.3782
vn 0.8255 -0.5632 0.0368
vn 0.4869 0.2575 -0.8346
vn 0.5683 -0.6360 0.5221
vn -0.2488 0.7306 -0.6359
vn 0.2688 -0.9625 0.0367
vn 0.8997 -0.3249 -0.2916
vn 0.8236 0.3656 -0.4337
vn -0.8925 0.3197 0.3181
vn 0.2093 0.9443 -0.2539
vn 0.6559 -0.2939 -0.6953
vn 0.7731 -0.3868 0.5026
vn -0.8020 0.4617 0.3790
vn 0.4618 0.6280 0.6264
vn -0.4151 -0.8169 -0.4005
vn 0.2006 -0.8754 -0.4398
vn -0.9327 -0.3541 -0.0681
vn -0.1978 0.8524 0.4841
vn 0.9482 0.3019 0.0987
vn 0.4585 -0.0519 -0.8872
vn -0.4410 0.3371 -0.8318
vn 0.4382 0.8666 -0.2387
vn 0.1443 0.9887 -0.0418
vn -0.8762 -0.3783 0.2986
vn 0.3146 -0.9452 -0.0870
vn -0.8631 0.2833 -0.4182
vn 0.3800 -0.4650 -0.7996
vn 0.4485 0.7870 -0.4237
vn 0.4946 0.8475 0.1927
vn -0.7524 -0.2894 -0.5917
vn 0.2535 0.2526 0.9338
vn 0.6154 0.2857 -0.7346
vn 0.3491 0.8509 -0.3927
vn -0.4114 -0.7704 0.4871
vn 0.4499 0.8739 -0.1839
vn -0.6062 -0.7467 -0.2739
vn 0.8712 -0.4765 0.1186
vn 0.9425 -0.2430 0.2292
vn 0.9018 -0.0986 -0.4207
vn -0.5197 0.0517 -0.8528
vn 0.0365 0.1857 -0.9819
vn 0.3741 -0.0793 -0.9240
vn -0.2969 0.1580 -0.9417
vn -0.3556 0.1585 0.9211
vn -0.8584 -0.3692 0.3562
vn -0.1061 -0.0220 -0.9941
vn -0.5203 0.4762 -0.7089
vn 0.8376 -0.4396 -0.3243
vn -0.0829 -0.9937 0.0748
vn 0.8640 0.2144 -0.4555
vn 0.9969 -0.0605 0.0496
vn -0.0989 -0.9359 -0.3381
vn 0.3111 -0.9431 0.1171
vn -0.9497 0.1480 0.2758
vn 0.0482 -0.3725 -0.9268
vn -0.3263 0.1735 -0.9292
vn 0.0077 0.0744 0.9972
vn 0.3579 0.1243 -0.9254
vn -0.9211 0.1438 -0.3618
vn 0.4850 0.1084 0.8678
vn -0.3835 0.1321 0.9140
vn 0.9877 0.0876 -0.1292
vn 0.5118 -0.5966 -0.6182
vn -0.2007 -0.2028 0.9584
vn 0.9146 0.1395 0.3797
vn 0.1824 -0.2152 0.9594
vn -0.4217 0.2900 0.8591
vn 0.1686 0.7005 0.6935
vn -0.3984 0.3915 -0.8294
vn -0.1766 -0.8163 -0.5500
vn -0.0176 0.9557 0.2937
vn 0.2285 -0.9015 0.3676
vn 0.6996 0.2934 0.6515
vn 0.3477 -0.3542 0.8681
vn -0.4413 -0.6269 0.6421
vn -0.0751 0.3638 -0.9284
vn 0.5206 0.8537 -0.0148
vn 0.5833 -0.5544 -0.5937
vn 0.5555 -0.2741 0.7851
vn 0.0425 -0.2912 -0.9557
vn 0.7078 -0.3697 0.6019
vn -0.1969 0.5315 -0.8239
vn 0.1391 -0.5243 0.8401
vn -0.7537 0.5001 0.4264
vn -0.7797 0.6112 0.1359
vn 0.4634 -0.4191 -0.7807
vn -0.2582 -0.9654 -0.0366
vn 0.4258 0.6802 -0.5966
vn 0.5907 0.6322 0.5014
vn 0.4513 0.4527 0.7690
vn -0.2642 0.4379 -0.8593
vn -0.0876 0.8892 -0.4490
vn -0.4525 0.2013 0.8687
vn 0.8252 0.0187 -0.5645
vn -0.0168 0.0016 -0.9999
vn -0.9648 0.2360 -0.1163
vn 0.0748 -0.0173 0.9970
vn 0.9608 -0.2263 0.1601
vn -0.7732 0.0232 0.6338
vn 0.7714 0.4783 0.4198
vn -0.5345 -0.7582 0.3735
vn -0.9191 -0.1788 0.3511
vn 0.9515 0.2850 -0.1161
vn -0.3841 -0.1214 -0.9153
vn -0.8632 0.4443 -0.2398
vn 0.9475 -0.3142 0.0595
vn 0.9433 -0.3169 0.0986
vn -0.8464 0.3211 -0.4249
vn 0.1442 -0.3353 -0.9310
vn 0.2951 -0.1039 -0.9498
vn 0.3184 -0.1154 -0.9409
vn -0.7426 -0.6695 0.0167
vn -0.3133 0.2187 0.9241
vn -0.7339 -0.6785 -0.0340
vn -0.0613 -0.9734 -0.2209
vn 0.6641 0.7446 0.0673
vn -0.0717 0.3774 -0.9233
vn -0.2236 0.0572 0.9730
vn -0.8959 0.0113 -0.4441
vn 0.5256 0.0403 -0.8498
vn -0.1102 0.1479 -0.9828
vn 0.1557 -0.9423 0.2962
vn -0.2805 0.7352 -0.6171
vn 0.4253 0.2792 0.8609
vn 0.1163 0.9802 0.1605
vn -0.6074 -0.7866 0.1108
vn 0.5183 -0.0039 0.8552
vn -0.3045 0.2940 -0.9060
vn 0.6042 0.7892 -0.1099
vn 0.0985 -0.2320 -0.9677
vn -0.9362 0.2199 0.2741
vn 0.9826 -0.1854 0.0088
vn 0.1235 0.9898 0.0707
vn -0.5044 -0.3593 -0.7852
vn 0.6065 0.7616 -0.2284
vn -0.5800 0.1845 -0.7935
vn -0.3079 0.6031 0.7358
vn 0.6643 -0.7294 -0.1633
vn -0.7432 0.1969 -0.6394
vn 0.4599 0.8848 0.0750
vn 0.9239 0.2670 0.2739
vn 0.1401 -0.0637 -0.9881
vn -0.7420 0.1998 0.6399
vn -0.7643 -0.6448 0.0134
vn 0.6944 0.7015 0.1600
vn -0.6412 -0.3312 0.6922
vn 0.0461 -0.9020 0.4294
vn -0.2195 -0.7058 0.6735
vn 0.0692 -0.5511 0.8316
vn -0.5576 0.5392 -0.6312
vn -0.5851 0.7320 -0.3491
vn 0.7240 0.0480 -0.6881
vn -0.9106 0.1095 0.3986
vn -0.1065 0.9912 -0.0781
vn -0.2135 -0.9276 0.3065
vn 0.7382 -0.3856 0.5536
vn -0.1595 -0.5852 -0.7951
vn -0.5941 0.1969 0.7799
vn -0.8214 0.4134 0.3929
vn 0.9067 0.1307 0.4011
vn -0.4186 0.0699 0.9055
vn -0.9123 0.3377 0.2316
vn 0.4225 0.8256 0.3740
vn 0.9048 -0.3280 -0.2716
vn -0.6938 0.4945 -0.5236
vn 0.6387 -0.5361 0.5519
vn -0.8914 0.3266 0.3143
vn 0.5968 -0.7911 -0.1338
vn -0.9117 -0.2358 0.3364
vn 0.9329 -0.0655 0.3542
vn 0.3879 0.0937 0.9169
vn -0.8664 0.2976 -0.4009
vn -0.8663 0.3228 -0.3812
vn -0.4352 0.2417 -0.8673
vn 0.4914 0.2353 -0.8386
vn 0.8984 0.3870 -0.2075
vn 0.3161 0.3187 0.8936
vn 0.8909 0.2357 0.3883
vn -0.3795 0.3221 0.8673
vn 0.1786 -0.9519 0.2489
vn 0.3745 0.1885 0.9079
vn 0.0110 -0.3396 -0.9405
vn 0.2813 0.3874 0.8779
vn -0.3868 -0.7210 0.5749
vn 0.8591 -0.3040 0.4117
vn 0.0276 -0.9992 -0.0280
vn -0.1235 -0.9917 -0.0352
vn 0.0267 -0.9921 0.1227
vn -0.9432 0.1379 0.3024
vn -0.9246 0.1480 -0.3510
vn 0.3181 0.0256 0.9477
vn -0.3480 0.1454 0.9261
vn 0.9407 -0.0169 -0.3388
vn -0.2505 -0.1751 0.9521
vn -0.3073 0.6102 0.7302
vn -0.3957 0.3261 -0.8585
vn -0.0613 -0.9333 -0.3538
vn 0.7020 0.3016 0.6451
vn 0.5483 0.7347 0.3995
vn 0.6291 -0.2489 0.7364
vn -0.3356 -0.9296 -0.1521
vn 0.4832 0.2905 0.8259
vn -0.2133 0.0773 0.9739
vn -0.8262 0.3196 -0.4639
vn 0.2368 -0.2725 -0.9326
vn -0.3687 -0.5135 -0.7748
vn -0.0766 0.3644 -0.9281
vn -0.4426 0.3412 -0.8293
vn -0.6033 -0.7877 0.1244
vn 0.7004 0.2633 0.6634
vn -0.1010 0.4586 -0.8829
vn -0.2302 -0.1255 -0.9650
vn 0.1694 0.9792 0.1116
vn 0.6047 0.7614 -0.2338
vn -0.3287 0.6041 0.7259
vn -0.5644 0.0650 -0.8229
vn 0.2905 0.9537 -0.0774
vn 0.9621 0.2380 0.1335
vn -0.7690 0.2941 0.5676
vn -0.0018 0.0696 -0.9976
vn -0.4149 -0.4272 -0.8034
vn -0.4488 0.0845 0.8896
vn 0.8354 -0.5088 0.2080
vn -0.8914 0.3265 0.3144
vn -0.8683 0.3299 -0.3704
vn -0.3149 0.3266 -0.8912
vn 0.4699 0.2519 -0.8460
vn 0.8687 0.2303 -0.4385
vn 0.3926 0.3736 0.8404
vn -0.3810 0.3211 0.8670
vn 0.1957 -0.9558 0.2193
vn 0.3126 0.2813 0.9073
s 0
usemtl Wood.001
f 41//1 6//1 5//1
f 33//2 36//2 130//2
f 42//3 35//3 41//3
f 33//4 39//4 34//4
f 7//5 73//5 40//5
f 8//6 41//6 5//6
f 34//7 73//7 65//7
f 31//8 34//8 30//8
f 30//9 1//9 70//9
f 68//10 72//10 5//10
f 28//11 71//11 32//11
f 5//12 28//12 7//12
f 70//13 52//13 29//13
f 5//14 6//14 68//14
f 6//15 29//15 68//15
f 51//16 17//16 45//16
f 10//17 37//17 11//17
f 76//18 10//18 11//18
f 76//19 75//19 14//19
f 77//20 75//20 78//20
f 77//21 42//21 75//21
f 77//22 89//22 42//22
f 80//23 79//23 12//23
f 80//24 76//24 14//24
f 81//25 14//25 13//25
f 81//26 80//26 14//26
f 84//27 81//27 82//27
f 84//28 80//28 81//28
f 84//29 82//29 15//29
f 15//30 86//30 87//30
f 87//31 86//31 85//31
f 88//32 15//32 87//32
f 96//33 95//33 94//33
f 93//34 92//34 95//34
f 96//35 93//35 95//35
f 17//36 31//36 74//36
f 46//37 31//37 51//37
f 17//38 9//38 43//38
f 43//39 9//39 36//39
f 43//40 36//40 46//40
f 18//41 51//41 97//41
f 54//42 43//42 46//42
f 101//43 98//43 49//43
f 100//44 101//44 51//44
f 103//45 54//45 20//45
f 102//46 54//46 103//46
f 107//47 54//47 104//47
f 113//48 109//48 112//48
f 113//49 108//49 109//49
f 116//50 113//50 115//50
f 111//51 113//51 116//51
f 114//52 111//52 116//52
f 22//53 116//53 115//53
f 117//54 116//54 22//54
f 117//55 114//55 116//55
f 118//56 114//56 117//56
f 118//57 21//57 114//57
f 120//58 22//58 119//58
f 122//59 119//59 23//59
f 120//60 119//60 122//60
f 23//61 119//61 121//61
f 123//62 99//62 98//62
f 123//63 124//63 99//63
f 123//64 98//64 125//64
f 125//65 98//65 101//65
f 126//66 124//66 123//66
f 129//67 124//67 126//67
f 127//68 125//68 129//68
f 128//69 129//69 126//69
f 60//70 129//70 128//70
f 60//71 127//71 129//71
f 57//72 40//72 39//72
f 24//73 39//73 33//73
f 58//74 40//74 57//74
f 24//75 33//75 59//75
f 131//76 58//76 57//76
f 131//77 57//77 132//77
f 132//78 57//78 25//78
f 138//79 58//79 137//79
f 132//80 59//80 138//80
f 133//81 57//81 24//81
f 133//82 134//82 57//82
f 26//83 59//83 134//83
f 136//84 135//84 134//84
f 139//85 137//85 131//85
f 142//86 139//86 131//86
f 140//87 137//87 139//87
f 141//88 138//88 140//88
f 142//89 132//89 141//89
f 139//90 142//90 145//90
f 145//91 143//91 139//91
f 147//92 27//92 145//92
f 143//93 145//93 27//93
f 144//94 143//94 27//94
f 147//95 144//95 146//95
f 148//96 149//96 27//96
f 149//97 147//97 146//97
f 65//98 73//98 66//98
f 66//99 73//99 7//99
f 35//100 6//100 41//100
f 9//101 10//101 8//101
f 31//102 33//102 34//102
f 31//103 36//103 33//103
f 8//104 44//104 41//104
f 74//105 37//105 9//105
f 42//106 41//106 44//106
f 71//107 3//107 32//107
f 40//108 73//108 39//108
f 34//109 39//109 73//109
f 31//110 30//110 6//110
f 34//111 65//111 30//111
f 30//112 3//112 1//112
f 29//113 30//113 70//113
f 5//114 72//114 28//114
f 45//115 17//115 43//115
f 6//116 35//116 31//116
f 35//117 74//117 31//117
f 3//118 69//118 1//118
f 61//119 62//119 151//119
f 65//120 66//120 153//120
f 66//121 67//121 153//121
f 151//122 150//122 63//122
f 152//123 151//123 64//123
f 48//124 72//124 68//124
f 65//125 3//125 30//125
f 30//126 29//126 6//126
f 7//127 28//127 32//127
f 1//128 2//128 70//128
f 48//129 29//129 52//129
f 56//130 28//130 53//130
f 53//131 72//131 55//131
f 1//132 56//132 2//132
f 51//133 18//133 46//133
f 5//134 38//134 8//134
f 69//135 71//135 56//135
f 38//136 7//136 40//136
f 9//137 38//137 36//137
f 38//138 130//138 36//138
f 13//139 75//139 42//139
f 12//140 42//140 44//140
f 76//141 11//141 75//141
f 10//142 12//142 44//142
f 37//143 78//143 11//143
f 12//144 10//144 76//144
f 78//145 75//145 11//145
f 42//146 89//146 37//146
f 79//147 83//147 82//147
f 79//148 13//148 12//148
f 76//149 80//149 12//149
f 79//150 81//150 13//150
f 85//151 83//151 84//151
f 82//152 81//152 79//152
f 84//153 83//153 80//153
f 83//154 86//154 82//154
f 15//155 82//155 86//155
f 15//156 85//156 84//156
f 90//157 77//157 78//157
f 88//158 85//158 15//158
f 88//159 87//159 85//159
f 89//160 90//160 78//160
f 16//161 89//161 77//161
f 16//162 91//162 89//162
f 54//163 49//163 43//163
f 92//164 16//164 90//164
f 93//165 16//165 92//165
f 93//166 91//166 16//166
f 91//167 94//167 90//167
f 92//168 90//168 94//168
f 94//169 91//169 93//169
f 94//170 95//170 92//170
f 93//171 96//171 94//171
f 9//172 17//172 74//172
f 46//173 36//173 31//173
f 51//174 31//174 17//174
f 97//175 51//175 49//175
f 19//176 54//176 18//176
f 54//177 46//177 18//177
f 47//178 97//178 49//178
f 45//179 100//179 51//179
f 50//180 19//180 97//180
f 19//181 18//181 97//181
f 98//182 45//182 43//182
f 49//183 98//183 43//183
f 98//184 99//184 45//184
f 19//185 106//185 104//185
f 51//186 101//186 49//186
f 42//187 74//187 35//187
f 102//188 47//188 54//188
f 102//189 50//189 47//189
f 103//190 20//190 50//190
f 102//191 103//191 50//191
f 104//192 54//192 19//192
f 20//193 106//193 50//193
f 107//194 20//194 54//194
f 107//195 105//195 20//195
f 106//196 109//196 104//196
f 109//197 107//197 104//197
f 105//198 110//198 106//198
f 108//199 105//199 107//199
f 108//200 112//200 110//200
f 112//201 109//201 110//201
f 113//202 111//202 108//202
f 112//203 115//203 113//203
f 111//204 114//204 112//204
f 115//205 118//205 22//205
f 21//206 112//206 114//206
f 22//207 121//207 117//207
f 119//208 22//208 118//208
f 121//209 118//209 117//209
f 120//210 23//210 121//210
f 101//211 124//211 125//211
f 99//212 124//212 100//212
f 58//213 130//213 38//213
f 127//214 126//214 123//214
f 124//215 129//215 125//215
f 127//216 123//216 125//216
f 128//217 126//217 127//217
f 60//218 128//218 127//218
f 58//219 38//219 40//219
f 59//220 133//220 24//220
f 130//221 59//221 33//221
f 57//222 39//222 24//222
f 138//223 59//223 58//223
f 132//224 25//224 59//224
f 137//225 58//225 131//225
f 57//226 134//226 25//226
f 26//227 136//227 133//227
f 134//228 59//228 25//228
f 134//229 135//229 26//229
f 136//230 134//230 133//230
f 140//231 144//231 141//231
f 140//232 138//232 137//232
f 141//233 132//233 138//233
f 142//234 131//234 132//234
f 143//235 140//235 139//235
f 141//236 145//236 142//236
f 62//237 55//237 48//237
f 144//238 147//238 145//238
f 27//239 146//239 144//239
f 149//240 148//240 147//240
f 148//241 27//241 147//241
f 27//242 149//242 146//242
f 62//243 52//243 150//243
f 63//244 52//244 70//244
f 63//245 2//245 151//245
f 64//246 2//246 56//246
f 152//247 53//247 61//247
f 56//248 152//248 64//248
f 61//249 55//249 4//249
f 3//250 67//250 32//250
f 32//251 66//251 7//251
f 153//252 3//252 65//252
f 9//253 37//253 10//253
f 8//254 10//254 44//254
f 71//255 69//255 3//255
f 61//256 4//256 62//256
f 151//257 62//257 150//257
f 152//258 61//258 151//258
f 48//259 55//259 72//259
f 48//260 68//260 29//260
f 56//261 71//261 28//261
f 53//262 28//262 72//262
f 1//263 69//263 56//263
f 5//264 7//264 38//264
f 9//265 8//265 38//265
f 13//266 14//266 75//266
f 12//267 13//267 42//267
f 37//268 89//268 78//268
f 79//269 80//269 83//269
f 85//270 86//270 83//270
f 90//271 16//271 77//271
f 89//272 91//272 90//272
f 54//273 47//273 49//273
f 47//274 50//274 97//274
f 45//275 99//275 100//275
f 19//276 50//276 106//276
f 42//277 37//277 74//277
f 20//278 105//278 106//278
f 106//279 110//279 109//279
f 109//280 108//280 107//280
f 105//281 108//281 110//281
f 108//282 111//282 112//282
f 112//283 21//283 115//283
f 115//284 21//284 118//284
f 22//285 120//285 121//285
f 121//286 119//286 118//286
f 120//287 122//287 23//287
f 101//288 100//288 124//288
f 58//289 59//289 130//289
f 59//290 26//290 133//290
f 26//291 135//291 136//291
f 140//292 143//292 144//292
f 141//293 144//293 145//293
f 62//294 4//294 55//294
f 62//295 48//295 52//295
f 63//296 150//296 52//296
f 63//297 70//297 2//297
f 64//298 151//298 2//298
f 152//299 56//299 53//299
f 61//300 53//300 55//300
f 3//301 153//301 67//301
f 32//302 67//302 66//302
