# Blender 3.3.1
# www.blender.org
mtllib TrYYYYY.mtl
o Cylinder
v -0.541995 2.285745 -1.738926
v 1.140384 0.790109 -0.667315
v 0.495477 2.275162 -1.522304
v 1.256543 0.835640 0.411493
v 0.963611 2.295731 -0.551284
v -0.008916 0.862350 1.692928
v 0.317274 2.289244 0.423517
v -0.851517 2.319780 0.370928
v -1.277893 2.154866 -0.124167
v -1.539832 0.800677 -1.078424
v -1.280241 2.288578 -0.986364
v -0.005887 0.801846 -1.569117
v 0.090860 4.245713 -0.896868
v -0.055754 4.245713 -0.911308
v 0.231839 4.245713 -0.854102
v 0.361767 4.245713 -0.784654
v 0.475649 4.245713 -0.691193
v 0.569110 4.245713 -0.577311
v 0.638558 4.245713 -0.447384
v 0.681323 4.245713 -0.306404
v 0.695764 4.245713 -0.159790
v 0.681323 4.245713 -0.013176
v 0.638558 4.245713 0.127803
v 0.569110 4.245713 0.257731
v 0.475649 4.245713 0.371613
v 0.361767 4.245713 0.465074
v 0.231839 4.245713 0.534522
v 0.090860 4.245713 0.577287
v -0.055754 4.245713 0.591727
v -0.202368 4.245713 0.577287
v -0.343348 4.245713 0.534522
v -0.473275 4.245713 0.465074
v -0.587157 4.245713 0.371613
v -0.680618 4.245713 0.257731
v -0.750066 4.245713 0.127803
v -0.792832 4.245713 -0.013176
v -0.807272 4.245713 -0.159790
v -0.792832 4.245713 -0.306404
v -0.750066 4.245713 -0.447384
v -0.680618 4.245713 -0.577311
v -0.587157 4.245713 -0.691193
v -0.473275 4.245713 -0.784654
v -0.343348 4.245713 -0.854102
v -0.202368 4.245713 -0.896868
v -0.044549 6.599946 -2.367774
v 0.231190 6.505861 -1.648723
v -0.318636 6.491290 -1.198501
v -0.935099 6.652675 -2.039287
v -1.010733 7.587050 -3.335141
v -0.406041 7.578816 -3.209041
v -0.967983 7.590692 -2.681935
v -0.986079 6.943262 -4.143321
v -1.033974 6.950562 -3.727031
v -1.415533 6.958717 -3.728254
v -1.449843 6.951938 -4.127385
v -1.057328 6.341516 -3.858999
v -1.091971 6.352414 -3.567374
v -1.341090 6.332627 -3.660601
v -1.048961 5.994855 -3.163016
v -0.524851 7.519433 0.263993
v -0.050800 7.529108 0.582983
v -0.344394 7.521964 1.109270
v -0.934758 7.510485 0.746780
v -0.298346 8.071068 -0.308562
v -0.377098 8.071068 -0.316319
v -0.222620 8.071068 -0.285591
v -0.152830 8.071068 -0.248288
v -0.091659 8.071068 -0.198086
v -0.041457 8.071068 -0.136915
v -0.004154 8.071068 -0.067125
v 0.018817 8.071068 0.008601
v 0.026574 8.071068 0.087353
v 0.018817 8.071068 0.166106
v -0.004154 8.071068 0.241832
v -0.041457 8.071068 0.311621
v -0.091659 8.071068 0.372792
v -0.152830 8.071068 0.422994
v -0.222620 8.071068 0.460298
v -0.298346 8.071068 0.483269
v -0.377098 8.071068 0.491025
v -0.455851 8.071068 0.483269
v -0.531577 8.071068 0.460298
v -0.601366 8.071068 0.422994
v -0.662537 8.071068 0.372792
v -0.712739 8.071068 0.311621
v -0.750042 8.071068 0.241832
v -0.773014 8.071068 0.166106
v -0.780770 8.071068 0.087353
v -0.773014 8.071068 0.008601
v -0.750042 8.071068 -0.067125
v -0.712739 8.071068 -0.136915
v -0.662537 8.071068 -0.198086
v -0.601366 8.071068 -0.248288
v -0.531577 8.071068 -0.285591
v -0.455851 8.071068 -0.308562
v 0.596098 9.113729 0.710921
v 0.633406 9.339254 1.903732
v 0.222956 9.103212 1.454319
v -0.172804 9.093390 0.856721
v 0.002496 9.034455 -0.942485
v 0.081466 9.014043 -0.782115
v -0.094360 9.001292 -0.626949
v 0.128268 9.369101 -0.609152
v -0.197335 9.098678 -0.875747
v 0.103831 9.486087 -0.434992
v 0.101563 9.491017 -0.385783
v 0.079932 9.484630 -0.430375
v 0.449335 9.329604 1.568071
v 0.063495 9.327645 1.950627
v 0.402508 9.035050 2.252774
v 0.419586 9.056894 2.555836
v 0.165971 9.017398 2.454988
v 0.198255 8.644718 1.719293
v 0.224116 8.650066 1.774080
v 0.188702 8.651729 1.777791
v 0.585429 -0.392967 -2.134556
v 1.918022 -0.395810 -0.594173
v 1.666085 -0.393531 1.427147
v -0.335813 -0.394855 2.474232
v -2.211710 -0.392762 1.553376
v -2.670938 -0.394875 -0.447940
v -1.446047 -0.395719 -1.987579
vn 0.6068 -0.1819 -0.7737
vn 0.9860 0.1243 -0.1114
vn 0.7341 0.4703 0.4899
vn -0.7154 0.5478 0.4337
vn -0.9850 0.1701 0.0291
vn -0.2975 -0.2139 -0.9304
vn 0.9426 0.1724 -0.2859
vn 0.4432 0.3405 -0.8292
vn 0.9832 0.1545 -0.0968
vn 0.6020 0.3154 -0.7335
vn 0.6341 -0.0308 0.7726
vn -0.2636 0.4190 -0.8689
vn 0.9884 0.1162 0.0974
vn 0.7453 0.2655 -0.6116
vn 0.4712 -0.0294 0.8815
vn 0.0911 0.3681 -0.9253
vn -0.0896 0.4062 -0.9094
vn 0.9553 0.0583 0.2898
vn 0.8818 -0.0172 0.4713
vn 0.7442 -0.2705 -0.6107
vn -0.0835 -0.5240 -0.8476
vn 0.8747 -0.1276 -0.4675
vn 0.9856 0.1386 -0.0971
vn 0.9610 0.2599 0.0947
vn 0.8883 0.3719 0.2695
vn 0.7794 0.4679 0.4166
vn 0.6479 0.5454 0.5317
vn -0.6320 0.0865 0.7701
vn 0.3688 0.6229 0.6899
vn 0.0835 -0.5246 -0.8473
vn 0.2256 0.6293 0.7437
vn 0.2510 -0.5025 -0.8274
vn 0.4196 -0.4555 -0.7851
vn 0.5869 -0.3796 -0.7151
vn 0.8623 -0.5021 -0.0656
vn -0.9978 0.0097 0.0652
vn 0.3501 0.8194 0.4540
vn -0.2521 -0.7919 -0.5563
vn 0.9347 0.0418 -0.3530
vn -0.4119 0.7884 -0.4569
vn -0.1387 -0.7767 0.6145
vn 0.0199 0.8520 -0.5231
vn -0.0024 -0.2577 -0.9662
vn 0.9903 0.1084 -0.0870
vn 0.2987 -0.6989 -0.6498
vn 0.2712 0.8629 0.4265
vn 0.2863 0.1656 -0.9437
vn -0.7249 -0.3471 0.5949
vn -0.8367 -0.3160 0.4472
vn -0.9186 -0.2803 0.2786
vn -0.9658 -0.2411 0.0951
vn -0.9751 -0.2000 -0.0960
vn -0.9448 -0.1586 -0.2866
vn -0.7720 -0.0506 -0.6336
vn -0.6343 0.0153 -0.7729
vn -0.4702 0.0716 -0.8797
vn -0.2883 0.1160 -0.9505
vn -0.0970 0.1470 -0.9844
vn 0.0967 0.1636 -0.9818
vn -0.5887 -0.3727 0.7173
vn -0.9938 0.0524 -0.0979
vn -0.9522 -0.0999 -0.2888
vn -0.6928 -0.4437 -0.5685
vn -0.5088 -0.5973 -0.6200
vn -0.3438 -0.6841 -0.6433
vn -0.1985 -0.7295 -0.6545
vn -0.1941 0.7437 0.6397
vn -0.0651 -0.7478 -0.6607
vn 0.0655 -0.7444 -0.6646
vn -0.4340 0.7294 0.5288
vn -0.5872 0.6503 0.4819
vn -0.7424 0.5399 0.3968
vn -0.8789 0.3955 0.2666
vn -0.9695 0.2257 0.0955
vn -0.4930 0.7703 -0.4046
vn -0.0733 -0.6644 0.7438
vn -0.2393 -0.5661 0.7889
vn -0.4262 -0.4274 0.7973
vn 0.3092 -0.7549 0.5785
vn -0.6147 -0.2475 0.7490
vn 0.1885 -0.7605 0.6214
vn -0.7723 -0.0431 0.6338
vn -0.8714 0.1541 0.4658
vn -0.9076 0.3170 0.2753
vn -0.8471 0.5248 -0.0834
vn -0.7250 0.6527 -0.2199
vn -0.6049 0.7278 -0.3233
vn 0.6526 0.5361 0.5355
vn 0.4881 0.6388 0.5947
vn 0.1974 0.7333 0.6507
vn 0.2355 -0.5845 -0.7765
vn 0.0638 0.7591 0.6478
vn 0.3841 -0.5797 -0.7186
vn -0.0620 0.7749 0.6291
vn 0.5296 -0.5504 -0.6454
vn 0.6728 -0.4924 -0.5522
vn 0.8089 -0.3984 -0.4324
vn 0.9238 -0.2610 -0.2802
vn 0.9947 0.0324 0.0980
vn 0.9329 0.2226 0.2830
vn 0.8097 0.3964 0.4328
vn -0.0087 0.7073 -0.7068
vn -0.8920 0.1480 0.4271
vn 0.9863 0.1626 0.0292
vn 0.1737 -0.9700 0.1702
vn -0.3208 -0.8344 -0.4481
vn 0.0144 0.9158 0.4013
vn -0.3355 0.7704 0.5421
vn 0.5711 -0.7675 -0.2911
vn -0.0501 -0.8808 0.4709
vn -0.4225 0.8009 -0.4243
vn 0.8341 0.5400 -0.1126
vn 0.4950 0.5116 0.7023
vn -0.2500 0.5733 -0.7802
vn 0.9109 0.3969 0.1131
vn -0.0667 0.3997 -0.9142
vn -0.3754 0.5221 0.7659
vn 0.2039 -0.0383 -0.9782
vn 0.8910 0.1379 -0.4325
vn -0.0161 0.6666 0.7452
vn -0.7037 0.1655 -0.6909
vn -0.2551 -0.4769 -0.8411
vn -0.7235 0.3808 -0.5758
vn 0.8321 -0.0604 0.5513
vn -0.5893 0.3703 -0.7181
vn 0.0978 -0.0667 0.9930
vn -0.9579 0.2713 -0.0943
vn -0.0975 -0.1037 0.9898
vn -0.7688 0.1044 0.6309
vn -0.4305 0.4073 -0.8055
vn -0.7251 0.3465 -0.5951
vn -0.9062 0.3212 -0.2749
vn -0.8700 0.1636 0.4650
vn -0.2903 -0.0047 0.9569
vn -0.8275 0.3460 -0.4423
vn -0.9372 0.2023 0.2843
vn -0.4708 0.0494 0.8808
vn 0.8857 0.1734 -0.4307
vn -0.9708 0.2201 0.0956
vn 0.2900 -0.0416 0.9561
vn 0.1960 0.3330 -0.9223
vn -0.5401 0.5247 0.6581
vn -0.2331 0.5957 0.7686
vn -0.3888 0.5656 0.7273
vn 0.9324 -0.0236 -0.3606
vn 0.4928 0.6089 0.6216
vn -0.6848 0.4639 0.5620
vn -0.8307 0.3359 0.4440
vn -0.9405 0.1846 0.2853
vn -0.9949 0.0237 0.0980
vn -0.9870 -0.1283 -0.0972
vn -0.9249 -0.2567 -0.2806
vn -0.9913 0.0630 -0.1152
vn -0.8245 -0.3549 -0.4407
vn -0.7004 -0.4232 -0.5748
vn -0.5618 -0.4646 -0.6845
vn 0.0764 0.6270 0.7753
vn -0.4130 -0.4820 -0.7727
vn -0.0772 0.6160 0.7840
vn 0.3968 0.8239 0.4045
vn 0.1537 -0.6108 -0.7767
vn -0.7090 0.3815 0.5931
vn 0.8510 -0.5225 -0.0528
vn 0.0068 -0.7820 0.6232
vn -0.6665 0.7401 -0.0897
vn 0.4518 0.5862 0.6725
vn 0.3540 -0.0588 -0.9334
vn 0.0390 0.4231 0.9052
vn 0.4667 0.1413 -0.8731
vn -0.9660 -0.2360 -0.1059
vn 0.2772 -0.2967 0.9138
vn 0.0927 -0.3246 0.9413
vn -0.8668 -0.1156 -0.4851
vn 0.6268 0.1545 -0.7637
vn 0.7639 0.1534 -0.6269
vn 0.8735 0.1379 -0.4669
vn 0.9513 0.1085 -0.2886
vn 0.9930 0.0659 -0.0978
vn 0.6172 -0.2312 0.7521
vn 0.9951 0.0116 0.0980
vn 0.9556 -0.0520 0.2899
vn 0.8754 -0.1216 0.4679
vn -0.0919 -0.3481 0.9329
vn 0.7584 -0.1934 0.6224
vn -0.2701 -0.3665 0.8903
vn -0.5099 -0.3846 0.7695
vn -0.8498 -0.2242 -0.4771
vn 0.4545 -0.2652 0.8503
vn 0.8289 -0.4996 -0.2515
vn 0.9276 -0.3623 -0.0914
vn 0.4940 0.6275 0.6019
vn 0.9830 -0.1561 0.0968
vn 0.9516 0.1056 0.2887
vn 0.8206 0.3664 0.4386
vn -0.0668 0.7316 0.6784
vn 0.6351 0.5701 0.5212
vn -0.3773 0.7539 0.5378
vn 0.3699 -0.6198 -0.6921
vn 0.3531 0.6625 0.6606
vn 0.2097 0.6914 0.6914
vn 0.2020 -0.7182 -0.6659
vn 0.0686 0.7143 0.6965
vn 0.4114 0.5966 -0.6891
vn 0.4897 -0.6358 -0.5966
vn 0.6040 -0.6240 -0.4957
vn 0.7173 -0.5817 -0.3834
vn 0.7463 -0.6260 0.2264
vn 0.1407 -0.7584 0.6364
vn 0.6478 -0.6786 0.3462
vn -0.3246 0.7251 -0.6074
vn 0.5398 -0.7157 0.4430
vn -0.2005 0.7231 -0.6610
vn 0.4264 -0.7404 0.5196
vn -0.0698 0.7020 -0.7087
vn 0.0739 0.6571 -0.7501
vn 0.2368 0.5786 -0.7805
vn 0.7711 -0.0698 -0.6328
vn 0.4208 0.4506 -0.7873
vn 0.6131 0.2568 -0.7471
vn -0.8574 0.5099 -0.0696
vn 0.4799 0.6432 0.5966
vn 0.8623 -0.2097 -0.4609
vn 0.8987 -0.3435 -0.2726
vn 0.8836 -0.4600 -0.0870
vn 0.8285 -0.5541 0.0816
vn -0.9200 0.2752 -0.2791
vn -0.8772 0.1029 -0.4689
vn -0.2642 -0.4143 -0.8710
vn 0.0808 -0.5654 -0.8209
vn -0.7712 -0.0682 -0.6329
vn -0.6192 -0.2173 -0.7545
vn -0.4445 -0.3330 -0.8316
vn 0.7900 -0.4239 -0.4430
vn -0.1809 0.7821 0.5964
vn -0.0837 -0.5196 -0.8503
vn -0.2941 0.7814 0.5503
vn -0.4025 0.7729 0.4904
vn -0.5062 0.7557 0.4155
vn -0.6046 0.7280 0.3232
vn -0.7362 0.6388 0.2233
vn -0.8318 0.5490 0.0819
vn -0.8996 0.4277 -0.0886
vn 0.6206 -0.4080 0.6697
vn 0.7305 -0.4663 0.4989
vn 0.8979 0.0914 -0.4305
vn -0.5166 -0.7760 0.3618
vn -0.1618 0.7934 -0.5868
vn -0.2013 0.7998 -0.5655
vn 0.0739 -0.9640 0.2554
vn -0.2909 -0.9384 0.1865
vn 0.3897 0.8797 -0.2726
vn -0.0534 0.9033 -0.4256
vn 0.7959 -0.6055 -0.0012
vn -0.3798 -0.8401 -0.3874
vn 0.9177 -0.3965 -0.0231
vn 0.0086 -0.8798 0.4753
vn 0.8924 0.1255 -0.4335
vn -0.9385 0.2898 -0.1880
vn -0.0002 -1.0000 0.0008
vn 0.8021 0.5158 0.3008
vn -0.7532 0.4700 -0.4602
vn 0.5152 0.5614 -0.6476
vn -0.2677 0.5578 0.7856
vn 0.6885 0.4148 -0.5949
vn 0.4255 0.3953 0.8141
vn -0.8704 0.4502 0.1992
vn -0.7706 0.1056 0.6285
vn -0.3278 -0.4847 -0.8109
vn 0.7722 -0.0457 0.6337
vn -0.0471 -0.0907 0.9948
vn -0.6714 0.3373 -0.6599
vn 0.8691 0.1696 -0.4646
vn -0.9748 0.2200 0.0368
vn 0.2728 0.3415 -0.8994
vn -0.6600 0.4819 0.5764
vn 0.9568 0.0182 -0.2902
vn 0.5039 0.6075 0.6140
vn -0.9907 0.0640 -0.1201
vn 0.5154 0.1482 -0.8440
vn -0.8757 -0.1190 -0.4680
vn 0.7489 -0.1987 0.6322
vn -0.4361 -0.3795 0.8160
vn -0.8612 -0.2156 -0.4603
vn 0.6081 0.5935 0.5273
vn -0.3113 0.7509 0.5825
vn 0.4142 -0.6324 -0.6546
vn -0.4478 0.7083 -0.5457
vn 0.0640 -0.7578 0.6493
vn 0.8268 -0.1380 -0.5453
vn -0.8954 0.4364 0.0882
vn 0.3391 0.6947 0.6344
vn -0.3983 -0.3644 -0.8418
vn 0.9844 -0.1467 -0.0970
vn -0.4410 0.7587 0.4795
vn -0.0030 -1.0000 0.0008
vn -0.0003 -1.0000 -0.0018
vn 0.0005 -1.0000 0.0009
vn 0.0013 -1.0000 -0.0006
vt 0.985825 1.000000
vt 0.050723 1.000000
vt 0.825356 0.500000
vt 0.894884 1.000000
vt 0.718180 0.500000
vt 0.739909 1.000000
vt 0.532517 0.500000
vt 0.574156 1.000880
vt 0.435041 0.999446
vt 0.317342 0.960518
vt 0.127738 0.500000
vt 0.197891 1.000000
vt 0.018455 0.500000
vt 0.961981 0.500000
vt 0.968750 1.000000
vt 0.000000 1.000000
vt 1.000000 1.000000
vt 0.937500 1.000000
vt 0.906250 1.000000
vt 0.875000 1.000000
vt 0.843750 1.000000
vt 0.812500 1.000000
vt 0.781250 1.000000
vt 0.750000 1.000000
vt 0.718750 1.000000
vt 0.687500 1.000000
vt 0.656250 1.000000
vt 0.625000 1.000000
vt 0.593750 1.000000
vt 0.562500 1.000000
vt 0.531250 1.000000
vt 0.500000 1.000000
vt 0.468750 1.000000
vt 0.437500 1.000000
vt 0.406250 1.000000
vt 0.375000 1.000000
vt 0.343750 1.000000
vt 0.312500 1.000000
vt 0.281250 1.000000
vt 0.250000 1.000000
vt 0.218750 1.000000
vt 0.187500 1.000000
vt 0.156250 1.000000
vt 0.125000 1.000000
vt 0.093750 1.000000
vt 0.062500 1.000000
vt 0.031250 1.000000
vt 0.925357 1.000000
vt 0.013864 1.000000
vt 0.710499 1.000000
vt 0.497576 1.000000
vt 0.197993 1.000000
vt 1.000000 1.000000
vt 0.114840 1.000000
vt 0.817763 1.000000
vt 0.417902 1.000000
vt 0.864363 1.000000
vt 0.000000 1.000000
vt 0.611131 1.000000
vt 0.382247 1.000000
vt 0.145770 1.000000
vt 0.026990 1.000000
vt 0.865939 1.000000
vt 0.581714 1.000000
vt 0.299557 1.000000
vt 0.206059 1.000000
vt 0.545493 1.000000
vt 0.052551 1.000000
vt 0.983705 1.000000
vt 0.788767 1.000000
vt 0.549786 1.000000
vt 0.272121 1.000000
vt 0.968750 1.000000
vt 1.000000 1.000000
vt 0.000000 1.000000
vt 0.937500 1.000000
vt 0.906250 1.000000
vt 0.875000 1.000000
vt 0.843750 1.000000
vt 0.812500 1.000000
vt 0.781250 1.000000
vt 0.750000 1.000000
vt 0.718750 1.000000
vt 0.687500 1.000000
vt 0.656250 1.000000
vt 0.625000 1.000000
vt 0.593750 1.000000
vt 0.562500 1.000000
vt 0.531250 1.000000
vt 0.500000 1.000000
vt 0.468750 1.000000
vt 0.437500 1.000000
vt 0.406250 1.000000
vt 0.375000 1.000000
vt 0.343750 1.000000
vt 0.312500 1.000000
vt 0.281250 1.000000
vt 0.250000 1.000000
vt 0.218750 1.000000
vt 0.187500 1.000000
vt 0.156250 1.000000
vt 0.125000 1.000000
vt 0.093750 1.000000
vt 0.062500 1.000000
vt 0.031250 1.000000
vt 0.000000 1.000000
vt 0.876804 1.000000
vt 0.680547 1.000000
vt 0.473890 1.000000
vt 0.190681 1.000000
vt 0.965470 1.000000
vt 0.040450 1.000000
vt 0.742733 1.000000
vt 0.492292 1.000000
vt 0.714827 1.000000
vt 0.000000 1.000000
vt 0.196299 1.000000
vt 0.937824 1.000000
vt 0.010603 1.000000
vt 0.538012 1.000000
vt 0.138906 1.000000
vt 0.930064 1.000000
vt 0.023957 1.000000
vt 0.303312 1.000000
vt 0.028351 1.000000
vt 0.886759 1.000000
vt 0.592815 1.000000
vt 0.269285 1.000000
vt 0.918055 1.000000
vt 0.059260 1.000000
vt 0.609933 1.000000
vt 0.425551 1.000000
vt 0.000000 0.500000
vt 0.937940 0.500000
vt 0.837501 0.462945
vt 0.796895 0.500000
vt 0.974567 0.318175
vt 0.655808 0.500000
vt 0.941059 0.121553
vt 0.499663 0.500000
vt 0.749502 0.018408
vt 0.345110 0.500000
vt 0.555880 0.118184
vt 0.214069 0.500000
vt 0.525146 0.301784
vt 0.078105 0.500000
vt 0.639414 0.456999
s 0
f 12/14/1 3/4/1 2/3/1
f 2/3/2 5/6/2 4/5/2
f 4/5/3 5/6/3 7/8/3
f 9/10/4 120/142/4 8/9/4
f 11/12/5 10/11/5 9/10/5
f 1/2/6 12/13/6 10/11/6
f 5/6/7 19/22/7 20/23/7
f 3/4/8 15/18/8 16/19/8
f 5/6/9 20/23/9 21/24/9
f 3/4/10 16/19/10 17/20/10
f 7/8/11 25/28/11 26/29/11
f 1/2/12 43/46/12 44/47/12
f 5/6/13 21/24/13 22/25/13
f 3/4/14 17/20/14 18/21/14
f 7/8/15 26/29/15 27/30/15
f 1/1/16 14/17/16 13/15/16
f 1/2/17 44/47/17 14/16/17
f 5/6/18 22/25/18 23/26/18
f 5/6/19 23/26/19 24/27/19
f 17/20/20 45/48/20 18/21/20
f 44/47/21 45/49/21 14/16/21
f 18/21/22 45/48/22 19/22/22
f 20/23/23 46/50/23 21/24/23
f 21/24/24 46/50/24 22/25/24
f 22/25/25 46/50/25 23/26/25
f 23/26/26 46/50/26 24/27/26
f 24/27/27 46/50/27 25/28/27
f 33/36/28 8/9/28 32/35/28
f 26/29/29 47/51/29 27/30/29
f 14/17/30 45/48/30 13/15/30
f 27/30/31 47/51/31 28/31/31
f 13/15/32 45/48/32 15/18/32
f 15/18/33 45/48/33 16/19/33
f 16/19/34 45/48/34 17/20/34
f 51/56/35 54/60/35 55/61/35
f 48/52/36 51/56/36 49/54/36
f 46/50/37 51/56/37 47/51/37
f 48/52/38 49/54/38 45/49/38
f 45/48/39 50/55/39 46/50/39
f 50/55/40 53/59/40 51/56/40
f 49/53/41 52/57/41 50/55/41
f 51/56/42 53/59/42 54/60/42
f 53/59/43 57/64/43 54/60/43
f 54/60/44 58/65/44 55/61/44
f 57/64/45 59/67/45 58/65/45
f 58/65/46 59/66/46 56/62/46
f 31/34/47 62/71/47 30/33/47
f 18/21/48 61/70/48 17/20/48
f 19/22/49 61/70/49 18/21/49
f 20/23/50 61/70/50 19/22/50
f 21/24/51 61/70/51 20/23/51
f 22/25/52 61/70/52 21/24/52
f 23/26/53 61/70/53 22/25/53
f 25/28/54 62/71/54 24/27/54
f 26/29/55 62/71/55 25/28/55
f 27/30/56 62/71/56 26/29/56
f 28/31/57 62/71/57 27/30/57
f 29/32/58 62/71/58 28/31/58
f 30/33/59 62/71/59 29/32/59
f 17/20/60 61/70/60 16/19/60
f 61/70/61 73/83/61 72/82/61
f 61/70/62 74/84/62 73/83/62
f 62/71/63 76/86/63 75/85/63
f 62/71/64 77/87/64 76/86/64
f 62/71/65 78/88/65 77/87/65
f 62/71/66 79/89/66 78/88/66
f 60/69/67 66/76/67 64/73/67
f 62/71/68 80/90/68 79/89/68
f 62/71/69 81/91/69 80/90/69
f 61/70/70 68/78/70 67/77/70
f 61/70/71 69/79/71 68/78/71
f 61/70/72 70/80/72 69/79/72
f 61/70/73 71/81/73 70/80/73
f 61/70/74 72/82/74 71/81/74
f 76/86/75 97/108/75 75/85/75
f 64/73/76 96/107/76 65/74/76
f 66/76/77 96/107/77 64/73/77
f 67/77/78 96/107/78 66/76/78
f 94/104/79 99/110/79 93/103/79
f 68/78/80 96/107/80 67/77/80
f 95/105/81 99/110/81 94/104/81
f 69/79/82 96/107/82 68/78/82
f 70/80/83 96/107/83 69/79/83
f 71/81/84 96/107/84 70/80/84
f 73/83/85 97/108/85 72/82/85
f 74/84/86 97/108/86 73/83/86
f 75/85/87 97/108/87 74/84/87
f 75/85/88 101/113/88 76/86/88
f 76/86/89 101/113/89 77/87/89
f 78/88/90 102/114/90 79/89/90
f 64/73/91 100/111/91 66/76/91
f 79/89/92 102/114/92 80/90/92
f 66/76/93 100/111/93 67/77/93
f 80/90/94 102/114/94 81/91/94
f 67/77/95 100/111/95 68/78/95
f 68/78/96 100/111/96 69/79/96
f 69/79/97 100/111/97 70/80/97
f 70/80/98 100/111/98 71/81/98
f 72/82/99 101/113/99 73/83/99
f 73/83/100 101/113/100 74/84/100
f 74/84/101 101/113/101 75/85/101
f 100/112/102 104/117/102 103/116/102
f 102/114/103 107/121/103 104/117/103
f 103/115/104 105/118/104 106/120/104
f 99/110/105 108/123/105 109/124/105
f 109/124/106 110/125/106 112/128/106
f 109/124/107 111/127/107 97/108/107
f 109/124/108 112/128/108 111/127/108
f 97/108/109 110/126/109 108/122/109
f 111/127/110 112/128/110 114/131/110
f 110/125/111 113/130/111 112/128/111
f 4/5/112 117/136/112 2/3/112
f 6/7/113 118/138/113 7/8/113
f 12/13/114 122/146/114 10/11/114
f 4/5/115 118/138/115 117/136/115
f 12/13/116 116/133/116 122/146/116
f 8/9/117 120/142/117 119/140/117
f 12/14/118 1/1/118 3/4/118
f 2/3/119 3/4/119 5/6/119
f 6/7/120 7/8/120 8/9/120
f 11/12/121 1/2/121 10/11/121
f 48/52/122 44/47/122 43/46/122
f 10/11/123 122/146/123 121/144/123
f 24/27/124 7/8/124 5/6/124
f 1/2/125 41/44/125 42/45/125
f 7/8/126 28/31/126 29/32/126
f 11/12/127 37/40/127 38/41/127
f 30/33/128 7/8/128 29/32/128
f 9/10/129 33/36/129 34/37/129
f 1/2/130 42/45/130 43/46/130
f 41/44/131 11/12/131 40/43/131
f 11/12/132 38/41/132 39/42/132
f 9/10/133 34/37/133 35/38/133
f 8/9/134 30/33/134 31/34/134
f 11/12/135 39/42/135 40/43/135
f 9/10/136 35/38/136 36/39/136
f 8/9/137 31/34/137 32/35/137
f 18/21/138 5/6/138 3/4/138
f 37/40/139 9/10/139 36/39/139
f 7/8/140 27/30/140 28/31/140
f 13/15/141 3/4/141 1/1/141
f 47/51/142 33/36/142 32/35/142
f 31/34/143 30/33/143 47/51/143
f 32/35/144 31/34/144 47/51/144
f 46/50/145 19/22/145 45/48/145
f 47/51/146 25/28/146 46/50/146
f 34/37/147 33/36/147 48/52/147
f 35/38/148 34/37/148 48/52/148
f 36/39/149 35/38/149 48/52/149
f 37/40/150 36/39/150 48/52/150
f 38/41/151 37/40/151 48/52/151
f 39/42/152 38/41/152 48/52/152
f 56/63/153 53/59/153 52/57/153
f 40/43/154 39/42/154 48/52/154
f 41/44/155 40/43/155 48/52/155
f 42/45/156 41/44/156 48/52/156
f 29/32/157 28/31/157 47/51/157
f 43/46/158 42/45/158 48/52/158
f 30/33/159 29/32/159 47/51/159
f 46/50/160 50/55/160 51/56/160
f 45/48/161 49/53/161 50/55/161
f 48/52/162 47/51/162 51/56/162
f 49/54/163 51/56/163 55/61/163
f 49/54/164 55/61/164 52/58/164
f 50/55/165 52/57/165 53/59/165
f 55/61/166 58/65/166 56/62/166
f 54/60/167 57/64/167 58/65/167
f 52/58/168 55/61/168 56/62/168
f 63/72/169 31/34/169 32/35/169
f 57/64/170 56/63/170 59/67/170
f 43/46/171 44/47/171 60/68/171
f 44/47/172 14/16/172 60/68/172
f 61/70/173 24/27/173 62/71/173
f 32/35/174 33/36/174 63/72/174
f 33/36/175 34/37/175 63/72/175
f 34/37/176 35/38/176 63/72/176
f 35/38/177 36/39/177 63/72/177
f 36/39/178 37/40/178 63/72/178
f 60/68/179 41/44/179 42/45/179
f 37/40/180 38/41/180 63/72/180
f 38/41/181 39/42/181 63/72/181
f 39/42/182 40/43/182 63/72/182
f 14/17/183 13/15/183 60/69/183
f 40/43/184 41/44/184 63/72/184
f 13/15/185 15/18/185 60/69/185
f 60/69/186 16/19/186 61/70/186
f 75/85/187 61/70/187 62/71/187
f 42/45/188 43/46/188 60/68/188
f 63/72/189 87/97/189 86/96/189
f 63/72/190 88/98/190 87/97/190
f 92/102/191 60/68/191 93/103/191
f 63/72/192 89/99/192 88/98/192
f 63/72/193 90/100/193 89/99/193
f 63/72/194 91/101/194 90/100/194
f 60/69/195 64/73/195 65/74/195
f 63/72/196 92/102/196 91/101/196
f 67/77/197 60/69/197 61/70/197
f 82/92/198 63/72/198 83/93/198
f 60/68/199 94/104/199 93/103/199
f 60/68/200 95/105/200 94/104/200
f 62/71/201 82/92/201 81/91/201
f 60/68/202 65/75/202 95/105/202
f 76/86/203 98/109/203 97/108/203
f 63/72/204 84/94/204 83/93/204
f 63/72/205 85/95/205 84/94/205
f 63/72/206 86/96/206 85/95/206
f 89/99/207 90/100/207 99/110/207
f 99/110/208 65/75/208 96/106/208
f 90/100/209 91/101/209 99/110/209
f 77/87/210 78/88/210 98/109/210
f 91/101/211 92/102/211 99/110/211
f 78/88/212 79/89/212 98/109/212
f 92/102/213 93/103/213 99/110/213
f 79/89/214 80/90/214 98/109/214
f 80/90/215 81/91/215 98/109/215
f 81/91/216 82/92/216 98/109/216
f 99/110/217 84/94/217 85/95/217
f 82/92/218 83/93/218 98/109/218
f 83/93/219 84/94/219 98/109/219
f 96/107/220 72/82/220 97/108/220
f 102/114/221 77/87/221 101/113/221
f 85/95/222 86/96/222 99/110/222
f 86/96/223 87/97/223 99/110/223
f 87/97/224 88/98/224 99/110/224
f 88/98/225 89/99/225 99/110/225
f 90/100/226 89/99/226 104/117/226
f 91/101/227 90/100/227 104/117/227
f 104/117/228 95/105/228 94/104/228
f 64/73/229 65/74/229 100/111/229
f 92/102/230 91/101/230 104/117/230
f 93/103/231 92/102/231 104/117/231
f 94/104/232 93/103/232 104/117/232
f 101/113/233 71/81/233 100/111/233
f 82/92/234 81/91/234 102/114/234
f 65/75/235 95/105/235 100/112/235
f 83/93/236 82/92/236 102/114/236
f 84/94/237 83/93/237 102/114/237
f 85/95/238 84/94/238 102/114/238
f 102/114/239 86/96/239 85/95/239
f 87/97/240 86/96/240 104/117/240
f 88/98/241 87/97/241 104/117/241
f 89/99/242 88/98/242 104/117/242
f 102/114/243 101/113/243 103/115/243
f 102/114/244 103/115/244 107/121/244
f 101/113/245 100/111/245 103/115/245
f 107/121/246 103/115/246 106/120/246
f 104/117/247 107/121/247 105/119/247
f 103/116/248 104/117/248 105/119/248
f 99/110/249 96/106/249 108/123/249
f 96/107/250 97/108/250 108/122/250
f 98/109/251 99/110/251 109/124/251
f 98/109/252 109/124/252 97/108/252
f 97/108/253 111/127/253 110/126/253
f 109/124/254 108/123/254 110/125/254
f 110/126/255 111/127/255 114/131/255
f 112/128/256 115/132/256 114/131/256
f 110/126/257 114/131/257 113/129/257
f 112/128/258 113/130/258 115/132/258
f 118/139/259 120/143/259 122/147/259
f 4/5/260 7/8/260 118/138/260
f 9/10/261 10/11/261 121/144/261
f 12/14/262 2/3/262 116/134/262
f 6/7/263 8/9/263 119/140/263
f 2/3/264 117/136/264 116/134/264
f 6/7/265 119/140/265 118/138/265
f 9/10/266 121/144/266 120/142/266
f 33/36/267 9/10/267 8/9/267
f 48/52/268 45/49/268 44/47/268
f 24/27/269 25/28/269 7/8/269
f 30/33/270 8/9/270 7/8/270
f 41/44/271 1/2/271 11/12/271
f 18/21/272 19/22/272 5/6/272
f 37/40/273 11/12/273 9/10/273
f 13/15/274 15/18/274 3/4/274
f 47/51/275 48/52/275 33/36/275
f 46/50/276 20/23/276 19/22/276
f 47/51/277 26/29/277 25/28/277
f 56/63/278 57/64/278 53/59/278
f 63/72/279 62/71/279 31/34/279
f 61/70/280 23/26/280 24/27/280
f 60/68/281 63/72/281 41/44/281
f 60/69/282 15/18/282 16/19/282
f 75/85/283 74/84/283 61/70/283
f 92/102/284 63/72/284 60/68/284
f 67/77/285 66/76/285 60/69/285
f 82/92/286 62/71/286 63/72/286
f 76/86/287 77/87/287 98/109/287
f 99/110/288 95/105/288 65/75/288
f 99/110/289 98/109/289 84/94/289
f 96/107/290 71/81/290 72/82/290
f 102/114/291 78/88/291 77/87/291
f 104/117/292 100/112/292 95/105/292
f 101/113/293 72/82/293 71/81/293
f 102/114/294 104/117/294 86/96/294
f 116/135/295 117/137/295 118/139/295
f 118/139/296 119/141/296 120/143/296
f 120/143/297 121/145/297 122/147/297
f 122/147/298 116/135/298 118/139/298
