# Blender 3.3.1
# www.blender.org
mtllib LowLODStar.mtl
o Cylinder.001
v 0.518650 0.300132 -0.077995 0.7804 0.6197 0.1176
v 0.391197 -0.126730 0.114906 0.7804 0.6197 0.1176
v -0.349346 -0.123262 -0.154074 0.7804 0.6197 0.1176
v -0.140557 0.518202 -0.104900 0.7804 0.6197 0.1176
v 0.659241 0.214221 -0.102303 0.7804 0.6197 0.1176
v 0.498116 0.166320 -0.162211 0.7804 0.6197 0.1176
v 0.319958 -0.418578 -0.163570 0.7804 0.6197 0.1176
v -0.302407 -0.424449 -0.163066 0.7804 0.6197 0.1176
v 0.000973 0.609412 0.142017 0.7804 0.6197 0.1176
v -0.229868 0.305523 0.144571 0.7804 0.6197 0.1176
v -0.559231 0.176107 0.147782 0.7804 0.6197 0.1176
v -0.328230 -0.115103 0.167957 0.7804 0.6197 0.1176
v 0.006202 -0.357896 0.162139 0.7804 0.6197 0.1176
v 0.351074 -0.484155 0.146691 0.7804 0.6197 0.1176
v 0.704295 0.268499 0.029091 0.7804 0.6197 0.1176
v -0.159428 0.210563 0.193883 0.7804 0.6197 0.1176
v -0.016065 -0.029045 0.231238 0.7804 0.6197 0.1176
v 0.291634 -0.101356 0.181805 0.7804 0.6197 0.1176
v 0.481077 0.162386 0.168188 0.7804 0.6197 0.1176
v 0.472313 -0.524624 -0.017021 0.7804 0.6197 0.1176
v 0.456954 -0.606054 0.048071 0.7804 0.6197 0.1176
v 0.428613 -0.572370 -0.087683 0.7804 0.6197 0.1176
v 0.373801 -0.625689 0.001727 0.7804 0.6197 0.1176
v -0.002147 -0.348491 -0.167051 0.7804 0.6197 0.1176
v -0.001268 -0.432611 0.085977 0.7804 0.6197 0.1176
v -0.403881 -0.634699 0.016824 0.7804 0.6197 0.1176
v -0.437745 -0.577982 -0.082191 0.7804 0.6197 0.1176
v -0.358375 -0.490698 0.143290 0.7804 0.6197 0.1176
v -0.472371 -0.573339 0.041880 0.7804 0.6197 0.1176
v -0.414591 -0.164799 -0.084004 0.7804 0.6197 0.1176
v -0.404436 -0.132496 0.093137 0.7804 0.6197 0.1176
v -0.704673 0.170362 0.032151 0.7804 0.6197 0.1176
v -0.719629 0.217691 -0.043094 0.7804 0.6197 0.1176
v -0.692044 0.238905 0.069681 0.7804 0.6197 0.1176
v -0.657090 0.280320 -0.037374 0.7804 0.6197 0.1176
v -0.521040 0.302286 0.066835 0.7804 0.6197 0.1176
v -0.559911 0.182463 -0.150494 0.7804 0.6197 0.1176
v 0.710802 0.170375 -0.023186 0.7804 0.6197 0.1176
v 0.653601 0.190405 0.109323 0.7804 0.6197 0.1176
v 0.381273 -0.126885 -0.126915 0.7804 0.6197 0.1176
v -0.032017 0.755175 0.019580 0.7804 0.6197 0.1176
v 0.003231 0.735542 -0.066938 0.7804 0.6197 0.1176
v 0.039431 0.730478 0.043341 0.7804 0.6197 0.1176
v 0.210308 0.312987 0.156284 0.7804 0.6197 0.1176
v 0.094966 0.652814 -0.049150 0.7804 0.6197 0.1176
v 0.281921 0.322285 0.118121 0.7804 0.6197 0.1176
v 0.234262 0.411078 0.039549 0.7804 0.6197 0.1176
v 0.266569 0.362998 -0.050147 0.7804 0.6197 0.1176
v 0.433388 -0.140616 0.001194 0.7804 0.6197 0.1176
v -0.001327 -0.406518 -0.123168 0.7804 0.6197 0.1176
v -0.001497 -0.454003 -0.010203 0.7804 0.6197 0.1176
v -0.433722 -0.134687 -0.024827 0.7804 0.6197 0.1176
v -0.258809 0.363480 0.047909 0.7804 0.6197 0.1176
v -0.260747 0.362304 -0.050519 0.7804 0.6197 0.1176
v 0.213703 0.281416 -0.163739 0.7804 0.6197 0.1176
v 0.295357 -0.098961 -0.180242 0.7804 0.6197 0.1176
v -0.026658 -0.016964 -0.233100 0.7804 0.6197 0.1176
v -0.219611 0.288961 -0.161294 0.7804 0.6197 0.1176
v 0.001213 0.591470 -0.149001 0.7804 0.6197 0.1176
vn 0.2016 0.5124 0.8347
vn 0.2368 0.6172 0.7503
vn 0.3085 0.6122 0.7280
vn -0.0256 0.1390 0.9900
vn -0.1211 0.0818 0.9893
vn -0.1853 -0.0496 0.9814
vn 0.5596 0.0109 0.8287
vn 0.3454 -0.2008 0.9167
vn 0.4546 -0.3619 0.8139
vn 0.8372 0.0409 -0.5454
vn 0.6752 -0.0102 0.7375
vn 0.9430 0.0803 0.3229
vn 0.3727 -0.8795 -0.2960
vn -0.2029 -0.7163 0.6676
vn -0.2190 -0.7151 0.6638
vn -0.1652 -0.5964 -0.7855
vn 0.4126 -0.8894 0.1968
vn -0.2511 -0.5927 0.7653
vn -0.6911 -0.7034 -0.1665
vn -0.7426 0.0387 -0.6686
vn -0.9613 0.0527 -0.2703
vn -0.7161 -0.6716 0.1902
vn -0.7089 0.7041 0.0409
vn -0.2222 0.6348 -0.7400
vn -0.2104 0.5555 0.8045
vn -0.1824 0.7873 -0.5890
vn 0.8973 -0.1597 0.4115
vn 0.6119 -0.4518 -0.6492
vn 0.7014 -0.5949 0.3927
vn -0.7350 0.4615 0.4968
vn -0.8650 0.5016 0.0110
vn -0.5775 0.4445 0.6848
vn -0.7218 0.5508 -0.4191
vn 0.6776 0.7105 -0.1898
vn 0.5443 0.4193 0.7266
vn 0.5324 0.4003 -0.7458
vn 0.7319 0.4403 0.5201
vn 0.1682 0.9615 0.2173
vn 0.8642 0.5014 0.0425
vn 0.6818 0.4058 -0.6087
vn 0.9247 0.1110 -0.3643
vn -0.4129 -0.8888 0.1987
vn -0.7740 0.4271 -0.4675
vn -0.7033 0.0258 0.7104
vn -0.9639 0.1210 0.2371
vn -0.1538 0.8265 0.5416
vn -0.2277 0.9737 -0.0071
vn -0.2005 0.9781 0.0556
vn 0.2062 0.4983 -0.8421
vn 0.5265 -0.0038 -0.8502
vn 0.1403 -0.5960 -0.7907
vn -0.1972 -0.1244 -0.9724
vn -0.4399 0.3547 -0.8250
vn -0.1398 0.1419 -0.9800
vn 0.4013 -0.2468 -0.8821
vn 0.4340 -0.2922 -0.8522
vn -0.4723 -0.0473 -0.8802
vn 0.2289 0.9671 -0.1111
vn 0.4021 0.7893 -0.4640
vn 0.0560 0.1783 0.9824
vn 0.1229 0.1341 0.9833
vn -0.3123 0.2450 0.9179
vn -0.1380 0.3739 0.9171
vn -0.1786 -0.0737 0.9812
vn 0.0237 -0.2040 0.9787
vn -0.0322 -0.2076 0.9777
vn 0.1425 -0.0684 0.9874
vn 0.1460 -0.0539 0.9878
vn 0.9376 0.0815 0.3379
vn 0.5596 -0.0135 -0.8286
vn 0.8776 -0.3892 -0.2798
vn -0.0985 -0.4954 -0.8630
vn -0.2435 -0.7601 -0.6025
vn -0.2199 -0.6855 0.6941
vn 0.2390 -0.7048 0.6679
vn 0.3618 -0.8596 -0.3608
vn 0.1416 -0.5562 -0.8189
vn 0.2616 -0.7962 -0.5455
vn 0.2122 -0.6818 0.7000
vn -0.6665 0.0045 0.7455
vn -0.5785 -0.4345 0.6903
vn -0.6666 -0.5660 -0.4852
vn -0.7476 -0.6190 -0.2408
vn -0.5620 -0.3955 0.7265
vn -0.5719 -0.3854 -0.7241
vn -0.5856 -0.3036 0.7516
vn -0.9722 0.0545 0.2276
vn -0.4128 0.4828 -0.7723
vn -0.3335 0.9108 0.2434
vn -0.2116 0.6053 0.7673
vn 0.8680 0.2771 -0.4121
vn 0.7268 -0.5954 0.3424
vn -0.8044 0.5197 -0.2880
vn -0.4669 0.4426 -0.7656
vn -0.0352 0.6381 0.7691
vn 0.3469 0.9352 -0.0709
vn 0.5206 0.4171 -0.7450
vn 0.8516 0.5186 0.0759
vn 0.1257 0.7771 -0.6166
vn 0.2549 0.7139 0.6522
vn 0.8599 0.5091 0.0369
vn 0.6860 -0.6392 -0.3476
vn -0.3788 -0.8530 -0.3591
vn -0.9457 0.0342 -0.3231
vn -0.7485 0.3900 -0.5362
vn 0.1220 0.1304 -0.9839
vn 0.0737 0.1691 -0.9828
vn 0.1500 -0.0475 -0.9875
vn 0.1520 -0.0398 -0.9876
vn -0.0324 -0.1976 -0.9797
vn 0.0357 -0.1927 -0.9806
vn -0.2355 -0.0077 -0.9719
vn -0.0862 0.1758 -0.9806
vn 0.1637 0.5073 -0.8460
vt 0.854578 0.637322
vt 0.908095 0.417433
vt 0.471625 0.176142
vt 0.475696 0.186363
vt 0.700817 0.915191
vt 0.311047 0.517473
vt 0.550531 0.183028
vt 0.639616 0.452097
vt 0.065758 0.575054
vt 0.978254 0.282416
vt 0.978254 0.247385
vt 0.799320 0.596398
vt 0.933124 0.386280
vt 0.945669 0.322240
vt 0.613760 0.506597
vt 0.585657 0.503338
vt 0.872735 0.096879
vt 0.432622 0.503734
vt 0.646006 0.090818
vt 0.992397 0.968966
vt 0.274725 0.467683
vt 0.012210 0.944345
vt 0.117514 0.433094
vt 0.099412 0.958519
vt 0.181296 0.994195
vt 0.042904 0.312590
vt 0.219902 0.972099
vt 0.070248 0.188290
vt 0.302246 0.993046
vt 0.283128 0.979406
vt 0.251234 0.052923
vt 0.498542 0.989440
vt 0.359564 0.072974
vt 0.621634 0.970747
vt 0.812080 0.782052
vt 0.155218 0.376295
vt 0.234957 0.232066
vt 0.421779 0.195390
vt 0.819734 0.994169
vt 0.431872 0.321409
vt 0.629189 0.727998
vt 0.605226 0.798300
vt 0.603809 0.606209
vt 0.574491 0.720614
vt 0.536887 0.509165
vt 0.753539 0.062249
vt 0.498451 0.896094
vt 0.417191 0.773999
vt 0.584393 0.089611
vt 0.397150 0.621736
vt 0.116279 0.079811
vt 0.394734 0.945544
vt 0.386215 0.793120
vt 0.302936 0.621956
vt 0.300843 0.899802
vt 0.221344 0.788911
vt 0.204128 0.682599
vt 0.195169 0.852300
vt 0.173632 0.680563
vt 0.146567 0.857048
vt 0.200017 0.535400
vt 0.545788 0.309096
vt 0.778333 0.731874
vt 0.472880 0.212866
vt 0.791970 0.920154
vt 0.968634 0.181449
vt 0.699968 0.547161
vt 0.017922 0.767103
vt 0.998709 0.823183
vt 0.003295 0.665217
vt 0.995367 0.615008
vt -0.000000 0.880667
vt 0.982907 0.817846
vt 0.360599 0.412406
vt 0.908394 0.979846
vt 0.960887 0.678529
vt 0.388415 0.437559
vt 0.895514 0.895721
vt 0.909903 0.793610
vt 0.897996 0.681152
vt 0.698469 0.742581
vt 0.753287 0.015883
vt 0.501836 0.561878
vt 0.499333 0.753050
vt 0.295691 0.723040
vt 0.099558 0.827911
vt 0.099997 0.679132
vt 0.901196 0.522495
vt 0.877098 0.414377
vt 0.909290 0.192196
vt 0.743921 0.237129
vt 0.102713 0.536697
vt 0.619551 0.414399
vt 0.769264 0.459338
vt 0.024740 0.532233
vt 0.979153 0.546232
vt 0.797902 0.452703
s 0
usemtl Material.008
f 46/78/1 19/39/1 39/65/1
f 46/78/2 39/65/2 15/35/2
f 44/74/3 19/40/3 46/77/3
f 16/36/4 17/37/4 9/21/4
f 11/26/5 17/37/5 16/36/5
f 28/51/6 17/37/6 12/28/6
f 18/38/7 14/33/7 2/3/7
f 19/40/8 18/38/8 39/64/8
f 18/38/9 2/4/9 39/64/9
f 20/41/10 22/43/10 40/67/10
f 2/5/11 14/34/11 21/42/11
f 49/81/12 21/42/12 20/41/12
f 21/42/13 23/44/13 22/43/13
f 14/34/14 23/44/14 21/42/14
f 14/34/15 25/47/15 23/44/15
f 22/43/16 50/83/16 24/45/16
f 51/84/17 25/47/17 26/48/17
f 26/48/18 28/52/18 29/53/18
f 26/48/19 29/53/19 27/50/19
f 27/50/20 30/54/20 3/6/20
f 27/50/21 29/53/21 30/54/21
f 52/85/22 31/55/22 32/56/22
f 34/58/23 35/59/23 33/57/23
f 37/61/24 35/59/24 58/92/24
f 11/25/25 10/24/25 34/58/25
f 35/59/26 54/87/26 58/92/26
f 39/65/27 38/63/27 15/35/27
f 5/12/28 38/63/28 40/67/28
f 39/65/29 49/81/29 38/63/29
f 53/86/30 10/24/30 41/68/30
f 54/87/31 53/86/31 41/68/31
f 10/24/32 9/22/32 41/68/32
f 41/68/33 42/70/33 4/9/33
f 42/71/34 43/73/34 45/76/34
f 9/20/35 44/75/35 43/73/35
f 59/96/36 45/76/36 55/88/36
f 44/75/37 47/79/37 43/73/37
f 15/35/38 48/80/38 46/78/38
f 46/78/39 48/80/39 47/79/39
f 48/80/40 55/88/40 45/76/40
f 40/67/41 49/81/41 20/41/41
f 51/84/42 23/44/42 25/47/42
f 3/6/43 30/54/43 52/85/43
f 31/55/44 29/53/44 12/29/44
f 52/85/45 29/53/45 31/55/45
f 53/86/46 36/60/46 10/24/46
f 54/87/47 36/60/47 53/86/47
f 35/59/48 36/60/48 54/87/48
f 1/2/49 6/14/49 55/89/49
f 40/66/50 7/17/50 56/90/50
f 8/19/51 24/46/51 50/82/51
f 37/62/52 57/91/52 3/7/52
f 4/8/53 59/94/53 58/93/53
f 57/91/54 58/93/54 59/97/54
f 56/90/55 6/14/55 5/10/55
f 40/66/56 56/90/56 5/11/56
f 3/7/57 8/19/57 27/49/57
f 1/1/58 48/80/58 15/35/58
f 1/1/59 15/35/59 5/12/59
f 44/74/60 17/37/60 19/40/60
f 9/21/61 17/37/61 44/74/61
f 10/23/62 16/36/62 9/21/62
f 11/26/63 16/36/63 10/23/63
f 12/28/64 17/37/64 11/26/64
f 13/31/65 17/37/65 28/51/65
f 14/33/66 17/37/66 13/31/66
f 18/38/67 17/37/67 14/33/67
f 19/40/68 17/37/68 18/38/68
f 49/81/69 2/5/69 21/42/69
f 40/67/70 22/43/70 7/15/70
f 20/41/71 21/42/71 22/43/71
f 7/16/72 22/43/72 24/45/72
f 22/43/73 23/44/73 50/83/73
f 14/34/74 13/32/74 25/47/74
f 25/47/75 13/32/75 26/48/75
f 51/84/76 26/48/76 50/83/76
f 50/83/77 27/50/77 8/18/77
f 50/83/78 26/48/78 27/50/78
f 26/48/79 13/32/79 28/52/79
f 28/52/80 12/29/80 29/53/80
f 31/55/81 12/30/81 32/56/81
f 52/85/82 33/57/82 3/6/82
f 52/85/83 32/56/83 33/57/83
f 32/56/84 12/30/84 11/27/84
f 3/6/85 33/57/85 37/61/85
f 32/56/86 11/27/86 34/58/86
f 33/57/87 32/56/87 34/58/87
f 37/61/88 33/57/88 35/59/88
f 34/58/89 36/60/89 35/59/89
f 34/58/90 10/24/90 36/60/90
f 5/12/91 15/35/91 38/63/91
f 39/65/92 2/5/92 49/81/92
f 54/87/93 41/68/93 4/9/93
f 4/9/94 42/70/94 59/95/94
f 41/68/95 9/22/95 43/72/95
f 41/69/96 43/73/96 42/71/96
f 59/96/97 42/71/97 45/76/97
f 43/73/98 47/79/98 45/76/98
f 1/1/99 55/88/99 48/80/99
f 46/78/100 47/79/100 44/75/100
f 47/79/101 48/80/101 45/76/101
f 49/81/102 40/67/102 38/63/102
f 51/84/103 50/83/103 23/44/103
f 29/53/104 52/85/104 30/54/104
f 4/9/105 58/92/105 54/87/105
f 55/89/106 57/91/106 59/97/106
f 6/14/107 57/91/107 55/89/107
f 56/90/108 57/91/108 6/14/108
f 7/17/109 57/91/109 56/90/109
f 24/46/110 57/91/110 7/17/110
f 8/19/111 57/91/111 24/46/111
f 3/7/112 57/91/112 8/19/112
f 58/93/113 57/91/113 37/62/113
f 1/2/114 5/13/114 6/14/114
